<?xml version="1.0" encoding="UTF-8" standalone="no"?>
<!DOCTYPE svg PUBLIC "-//W3C//DTD SVG 1.1//EN"
 "http://www.w3.org/Graphics/SVG/1.1/DTD/svg11.dtd">
<!-- Generated by graphviz version 2.43.0 (0)
 -->
<!-- Title: SchemaERD Pages: 1 -->
<svg width="1471pt" height="1094pt"
 viewBox="0.00 0.00 1471.00 1093.50" xmlns="http://www.w3.org/2000/svg" xmlns:xlink="http://www.w3.org/1999/xlink">
<g id="graph0" class="graph" transform="scale(1 1) rotate(0) translate(4 1089.5)">
<title>SchemaERD</title>
<polygon fill="#f8fafc" stroke="transparent" points="-4,4 -4,-1089.5 1467,-1089.5 1467,4 -4,4"/>
<text text-anchor="start" x="617" y="-1064.9" font-family="Arial" font-weight="bold" font-size="22.00">Console Schema ERD</text>
<text text-anchor="start" x="306.5" y="-1050.1" font-family="Arial" font-size="13.00" fill="#475569">One flat </text>
<text text-anchor="start" x="357.5" y="-1050.1" font-family="monospace" font-size="13.00" fill="#475569">public</text>
<text text-anchor="start" x="403.5" y="-1050.1" font-family="Arial" font-size="13.00" fill="#475569"> schema — per&#45;project tables keyed by project_id; global directory tables are single row&#45;sets. (src/software_factory/models.py)</text>
<!-- projectstate -->
<g id="node1" class="node">
<title>projectstate</title>
<polygon fill="white" stroke="transparent" points="707.5,-423.5 707.5,-587.5 886.5,-587.5 886.5,-423.5 707.5,-423.5"/>
<polygon fill="#e0f2fe" stroke="transparent" points="708,-562.5 708,-587.5 887,-587.5 887,-562.5 708,-562.5"/>
<polygon fill="none" stroke="black" points="708,-562.5 708,-587.5 887,-587.5 887,-562.5 708,-562.5"/>
<text text-anchor="start" x="759" y="-572.3" font-family="Arial" font-weight="bold" font-size="14.00">projectstate</text>
<polygon fill="none" stroke="black" points="708,-537.5 708,-562.5 887,-562.5 887,-537.5 708,-537.5"/>
<text text-anchor="start" x="713" y="-547.3" font-family="Arial" font-weight="bold" font-size="14.00">PK</text>
<text text-anchor="start" x="732" y="-547.3" font-family="Arial" font-size="14.00"> project_id</text>
<polygon fill="none" stroke="black" points="708,-512.5 708,-537.5 887,-537.5 887,-512.5 708,-512.5"/>
<text text-anchor="start" x="713" y="-521.3" font-family="Arial" font-size="14.00">data : ProjectState JSON</text>
<polygon fill="none" stroke="black" points="708,-487.5 708,-512.5 887,-512.5 887,-487.5 708,-487.5"/>
<text text-anchor="start" x="713" y="-496.3" font-family="Arial" font-size="14.00">name, summary : columns</text>
<polygon fill="none" stroke="black" points="708,-444.5 708,-487.5 887,-487.5 887,-444.5 708,-444.5"/>
<text text-anchor="start" x="722" y="-474.5" font-family="Arial" font-size="10.00" fill="#64748b">(JSON holds owner, phase, stage,</text>
<text text-anchor="start" x="713" y="-463.5" font-family="Arial" font-size="10.00" fill="#64748b">models, budget, brief; name+summary</text>
<text text-anchor="start" x="750" y="-452.5" font-family="Arial" font-size="10.00" fill="#64748b">promoted to columns)</text>
<polygon fill="none" stroke="black" points="708,-423.5 708,-444.5 887,-444.5 887,-423.5 708,-423.5"/>
<text text-anchor="start" x="713" y="-431.5" font-family="Arial" font-size="10.00" fill="#64748b">also the project registry</text>
</g>
<!-- phases -->
<g id="node2" class="node">
<title>phases</title>
<polygon fill="white" stroke="transparent" points="991.5,-938.5 991.5,-1038.5 1138.5,-1038.5 1138.5,-938.5 991.5,-938.5"/>
<polygon fill="#f1f5f9" stroke="transparent" points="992,-1013.5 992,-1038.5 1139,-1038.5 1139,-1013.5 992,-1013.5"/>
<polygon fill="none" stroke="black" points="992,-1013.5 992,-1038.5 1139,-1038.5 1139,-1013.5 992,-1013.5"/>
<text text-anchor="start" x="1042" y="-1023.3" font-family="Arial" font-weight="bold" font-size="14.00">phases</text>
<polygon fill="none" stroke="black" points="992,-988.5 992,-1013.5 1139,-1013.5 1139,-988.5 992,-988.5"/>
<text text-anchor="start" x="997" y="-998.3" font-family="Arial" font-weight="bold" font-size="14.00">PK</text>
<text text-anchor="start" x="1016" y="-998.3" font-family="Arial" font-size="14.00"> id</text>
<polygon fill="none" stroke="black" points="992,-963.5 992,-988.5 1139,-988.5 1139,-963.5 992,-963.5"/>
<text text-anchor="start" x="997" y="-973.3" font-family="Arial" font-weight="bold" font-size="14.00">FK</text>
<text text-anchor="start" x="1016" y="-973.3" font-family="Arial" font-size="14.00"> project_id</text>
<polygon fill="none" stroke="black" points="992,-938.5 992,-963.5 1139,-963.5 1139,-938.5 992,-938.5"/>
<text text-anchor="start" x="997" y="-947.3" font-family="Arial" font-size="14.00">name, status, stage, ts</text>
</g>
<!-- projectstate&#45;&gt;phases -->
<g id="edge1" class="edge">
<title>projectstate:t&#45;&gt;phases:t</title>
<path fill="none" stroke="#334155" d="M888,-575.5C907.48,-575.5 914.08,-583.73 924,-600.5 943.56,-633.58 937.63,-734.32 942,-772.5 949.79,-840.58 946.97,-858.43 961,-925.5 969.95,-968.29 947.52,-1019.21 982.61,-1025.79"/>
<polygon fill="#334155" stroke="#334155" points="982.79,-1028.61 991,-1026.5 983.26,-1023.03 982.79,-1028.61"/>
</g>
<!-- artifacts -->
<g id="node3" class="node">
<title>artifacts</title>
<polygon fill="white" stroke="transparent" points="986.5,-791 986.5,-912 1143.5,-912 1143.5,-791 986.5,-791"/>
<polygon fill="#f1f5f9" stroke="transparent" points="987,-886.5 987,-911.5 1144,-911.5 1144,-886.5 987,-886.5"/>
<polygon fill="none" stroke="black" points="987,-886.5 987,-911.5 1144,-911.5 1144,-886.5 987,-886.5"/>
<text text-anchor="start" x="1039" y="-896.3" font-family="Arial" font-weight="bold" font-size="14.00">artifacts</text>
<polygon fill="none" stroke="black" points="987,-861.5 987,-886.5 1144,-886.5 1144,-861.5 987,-861.5"/>
<text text-anchor="start" x="992" y="-871.3" font-family="Arial" font-weight="bold" font-size="14.00">PK</text>
<text text-anchor="start" x="1011" y="-871.3" font-family="Arial" font-size="14.00"> id</text>
<polygon fill="none" stroke="black" points="987,-836.5 987,-861.5 1144,-861.5 1144,-836.5 987,-836.5"/>
<text text-anchor="start" x="992" y="-846.3" font-family="Arial" font-weight="bold" font-size="14.00">FK</text>
<text text-anchor="start" x="1011" y="-846.3" font-family="Arial" font-size="14.00"> project_id</text>
<polygon fill="none" stroke="black" points="987,-811.5 987,-836.5 1144,-836.5 1144,-811.5 987,-811.5"/>
<text text-anchor="start" x="992" y="-820.3" font-family="Arial" font-size="14.00">title, path, kind, agent, ts</text>
<polygon fill="none" stroke="black" points="987,-790.5 987,-811.5 1144,-811.5 1144,-790.5 987,-790.5"/>
<text text-anchor="start" x="992" y="-798.5" font-family="Arial" font-size="10.00" fill="#64748b">metadata only; bytes via blobs</text>
</g>
<!-- projectstate&#45;&gt;artifacts -->
<g id="edge2" class="edge">
<title>projectstate:t&#45;&gt;artifacts:t</title>
<path fill="none" stroke="#334155" d="M888,-575.5C907.48,-575.5 913.78,-583.92 924,-600.5 958.07,-655.79 921.56,-879.11 977.84,-898.2"/>
<polygon fill="#334155" stroke="#334155" points="977.66,-901 986,-899.5 978.54,-895.47 977.66,-901"/>
</g>
<!-- blockers -->
<g id="node4" class="node">
<title>blockers</title>
<polygon fill="white" stroke="transparent" points="987.5,-664.5 987.5,-764.5 1142.5,-764.5 1142.5,-664.5 987.5,-664.5"/>
<polygon fill="#f1f5f9" stroke="transparent" points="988,-739.5 988,-764.5 1143,-764.5 1143,-739.5 988,-739.5"/>
<polygon fill="none" stroke="black" points="988,-739.5 988,-764.5 1143,-764.5 1143,-739.5 988,-739.5"/>
<text text-anchor="start" x="1037.5" y="-749.3" font-family="Arial" font-weight="bold" font-size="14.00">blockers</text>
<polygon fill="none" stroke="black" points="988,-714.5 988,-739.5 1143,-739.5 1143,-714.5 988,-714.5"/>
<text text-anchor="start" x="993" y="-724.3" font-family="Arial" font-weight="bold" font-size="14.00">PK</text>
<text text-anchor="start" x="1012" y="-724.3" font-family="Arial" font-size="14.00"> id</text>
<polygon fill="none" stroke="black" points="988,-689.5 988,-714.5 1143,-714.5 1143,-689.5 988,-689.5"/>
<text text-anchor="start" x="993" y="-699.3" font-family="Arial" font-weight="bold" font-size="14.00">FK</text>
<text text-anchor="start" x="1012" y="-699.3" font-family="Arial" font-size="14.00"> project_id</text>
<polygon fill="none" stroke="black" points="988,-664.5 988,-689.5 1143,-689.5 1143,-664.5 988,-664.5"/>
<text text-anchor="start" x="993" y="-673.3" font-family="Arial" font-size="14.00">what, blocks, cleared, ts</text>
</g>
<!-- projectstate&#45;&gt;blockers -->
<g id="edge3" class="edge">
<title>projectstate:t&#45;&gt;blockers:t</title>
<path fill="none" stroke="#334155" d="M888,-575.5C975.14,-575.5 902.07,-740.94 978.58,-751.93"/>
<polygon fill="#334155" stroke="#334155" points="978.83,-754.75 987,-752.5 979.21,-749.16 978.83,-754.75"/>
</g>
<!-- gates -->
<g id="node5" class="node">
<title>gates</title>
<polygon fill="white" stroke="transparent" points="993.5,-563 993.5,-638 1136.5,-638 1136.5,-563 993.5,-563"/>
<polygon fill="#f1f5f9" stroke="transparent" points="994,-612.5 994,-637.5 1137,-637.5 1137,-612.5 994,-612.5"/>
<polygon fill="none" stroke="black" points="994,-612.5 994,-637.5 1137,-637.5 1137,-612.5 994,-612.5"/>
<text text-anchor="start" x="1047.5" y="-622.3" font-family="Arial" font-weight="bold" font-size="14.00">gates</text>
<polygon fill="none" stroke="black" points="994,-587.5 994,-612.5 1137,-612.5 1137,-587.5 994,-587.5"/>
<text text-anchor="start" x="999" y="-597.3" font-family="Arial" font-weight="bold" font-size="14.00">PK</text>
<text text-anchor="start" x="1018" y="-597.3" font-family="Arial" font-size="14.00"> (project_id, name)</text>
<polygon fill="none" stroke="black" points="994,-562.5 994,-587.5 1137,-587.5 1137,-562.5 994,-562.5"/>
<text text-anchor="start" x="999" y="-571.3" font-family="Arial" font-size="14.00">status, ts</text>
</g>
<!-- projectstate&#45;&gt;gates -->
<g id="edge4" class="edge">
<title>projectstate:t&#45;&gt;gates:t</title>
<path fill="none" stroke="#334155" d="M888,-575.5C936.86,-575.5 940.98,-620.18 984.95,-625.07"/>
<polygon fill="#334155" stroke="#334155" points="984.86,-627.87 993,-625.5 985.16,-622.27 984.86,-627.87"/>
</g>
<!-- verifications -->
<g id="node6" class="node">
<title>verifications</title>
<polygon fill="white" stroke="transparent" points="997.5,-416 997.5,-537 1132.5,-537 1132.5,-416 997.5,-416"/>
<polygon fill="#f1f5f9" stroke="transparent" points="998,-511.5 998,-536.5 1133,-536.5 1133,-511.5 998,-511.5"/>
<polygon fill="none" stroke="black" points="998,-511.5 998,-536.5 1133,-536.5 1133,-511.5 998,-511.5"/>
<text text-anchor="start" x="1025.5" y="-521.3" font-family="Arial" font-weight="bold" font-size="14.00">verifications</text>
<polygon fill="none" stroke="black" points="998,-486.5 998,-511.5 1133,-511.5 1133,-486.5 998,-486.5"/>
<text text-anchor="start" x="1003" y="-496.3" font-family="Arial" font-weight="bold" font-size="14.00">PK</text>
<text text-anchor="start" x="1022" y="-496.3" font-family="Arial" font-size="14.00"> id</text>
<polygon fill="none" stroke="black" points="998,-461.5 998,-486.5 1133,-486.5 1133,-461.5 998,-461.5"/>
<text text-anchor="start" x="1003" y="-471.3" font-family="Arial" font-weight="bold" font-size="14.00">FK</text>
<text text-anchor="start" x="1022" y="-471.3" font-family="Arial" font-size="14.00"> project_id</text>
<polygon fill="none" stroke="black" points="998,-436.5 998,-461.5 1133,-461.5 1133,-436.5 998,-436.5"/>
<text text-anchor="start" x="1003" y="-445.3" font-family="Arial" font-size="14.00">url, passed, result, ts</text>
<polygon fill="none" stroke="black" points="998,-415.5 998,-436.5 1133,-436.5 1133,-415.5 998,-415.5"/>
<text text-anchor="start" x="1003" y="-423.5" font-family="Arial" font-size="10.00" fill="#64748b">passed = Stage 3 done gate</text>
</g>
<!-- projectstate&#45;&gt;verifications -->
<g id="edge5" class="edge">
<title>projectstate:t&#45;&gt;verifications:t</title>
<path fill="none" stroke="#334155" d="M888,-575.5C938.66,-575.5 943.16,-529.74 988.95,-524.91"/>
<polygon fill="#334155" stroke="#334155" points="989.15,-527.7 997,-524.5 988.87,-522.11 989.15,-527.7"/>
</g>
<!-- deployments -->
<g id="node7" class="node">
<title>deployments</title>
<polygon fill="white" stroke="transparent" points="991,-243.5 991,-389.5 1139,-389.5 1139,-243.5 991,-243.5"/>
<polygon fill="#f1f5f9" stroke="transparent" points="991,-364.5 991,-389.5 1139,-389.5 1139,-364.5 991,-364.5"/>
<polygon fill="none" stroke="black" points="991,-364.5 991,-389.5 1139,-389.5 1139,-364.5 991,-364.5"/>
<text text-anchor="start" x="1022.5" y="-374.3" font-family="Arial" font-weight="bold" font-size="14.00">deployments</text>
<polygon fill="none" stroke="black" points="991,-339.5 991,-364.5 1139,-364.5 1139,-339.5 991,-339.5"/>
<text text-anchor="start" x="996" y="-349.3" font-family="Arial" font-weight="bold" font-size="14.00">PK</text>
<text text-anchor="start" x="1015" y="-349.3" font-family="Arial" font-size="14.00"> id</text>
<polygon fill="none" stroke="black" points="991,-314.5 991,-339.5 1139,-339.5 1139,-314.5 991,-314.5"/>
<text text-anchor="start" x="996" y="-324.3" font-family="Arial" font-weight="bold" font-size="14.00">FK</text>
<text text-anchor="start" x="1015" y="-324.3" font-family="Arial" font-size="14.00"> project_id</text>
<polygon fill="none" stroke="black" points="991,-289.5 991,-314.5 1139,-314.5 1139,-289.5 991,-289.5"/>
<text text-anchor="start" x="996" y="-298.3" font-family="Arial" font-size="14.00">app, service_name, url</text>
<polygon fill="none" stroke="black" points="991,-264.5 991,-289.5 1139,-289.5 1139,-264.5 991,-264.5"/>
<text text-anchor="start" x="996" y="-273.3" font-family="Arial" font-size="14.00">status, verified, ts</text>
<polygon fill="none" stroke="black" points="991,-243.5 991,-264.5 1139,-264.5 1139,-243.5 991,-243.5"/>
<text text-anchor="start" x="996" y="-251.5" font-family="Arial" font-size="10.00" fill="#64748b">1..N deliverables per project</text>
</g>
<!-- projectstate&#45;&gt;deployments -->
<g id="edge6" class="edge">
<title>projectstate:t&#45;&gt;deployments:t</title>
<path fill="none" stroke="#334155" d="M888,-575.5C984.09,-575.5 896.47,-388.93 981.79,-378"/>
<polygon fill="#334155" stroke="#334155" points="982.19,-380.78 990,-377.5 981.84,-375.19 982.19,-380.78"/>
</g>
<!-- tickets -->
<g id="node8" class="node">
<title>tickets</title>
<polygon fill="white" stroke="transparent" points="969,-4 969,-179 1161,-179 1161,-4 969,-4"/>
<polygon fill="#f1f5f9" stroke="transparent" points="969,-153.5 969,-178.5 1161,-178.5 1161,-153.5 969,-153.5"/>
<polygon fill="none" stroke="black" points="969,-153.5 969,-178.5 1161,-178.5 1161,-153.5 969,-153.5"/>
<text text-anchor="start" x="1043.5" y="-163.3" font-family="Arial" font-weight="bold" font-size="14.00">tickets</text>
<polygon fill="none" stroke="black" points="969,-128.5 969,-153.5 1161,-153.5 1161,-128.5 969,-128.5"/>
<text text-anchor="start" x="974" y="-138.3" font-family="Arial" font-weight="bold" font-size="14.00">PK</text>
<text text-anchor="start" x="993" y="-138.3" font-family="Arial" font-size="14.00"> id</text>
<polygon fill="none" stroke="black" points="969,-103.5 969,-128.5 1161,-128.5 1161,-103.5 969,-103.5"/>
<text text-anchor="start" x="974" y="-113.3" font-family="Arial" font-weight="bold" font-size="14.00">FK</text>
<text text-anchor="start" x="993" y="-113.3" font-family="Arial" font-size="14.00"> project_id</text>
<polygon fill="none" stroke="black" points="969,-78.5 969,-103.5 1161,-103.5 1161,-78.5 969,-78.5"/>
<text text-anchor="start" x="974" y="-87.3" font-family="Arial" font-size="14.00">title, acceptance, dod, wave</text>
<polygon fill="none" stroke="black" points="969,-53.5 969,-78.5 1161,-78.5 1161,-53.5 969,-53.5"/>
<text text-anchor="start" x="974" y="-62.3" font-family="Arial" font-size="14.00">status (6&#45;state), agent, app</text>
<polygon fill="none" stroke="black" points="969,-28.5 969,-53.5 1161,-53.5 1161,-28.5 969,-28.5"/>
<text text-anchor="start" x="974" y="-37.3" font-family="Arial" font-size="14.00">provenance, provenance_type</text>
<polygon fill="none" stroke="black" points="969,-3.5 969,-28.5 1161,-28.5 1161,-3.5 969,-3.5"/>
<text text-anchor="start" x="974" y="-12.3" font-family="Arial" font-size="14.00">diff_lines, description</text>
</g>
<!-- projectstate&#45;&gt;tickets -->
<g id="edge7" class="edge">
<title>projectstate:t&#45;&gt;tickets:t</title>
<path fill="none" stroke="#334155" d="M888,-575.5C977.72,-575.5 881.77,-191.66 959.89,-167.67"/>
<polygon fill="#334155" stroke="#334155" points="960.48,-170.42 968,-166.5 959.68,-164.87 960.48,-170.42"/>
</g>
<!-- agents -->
<g id="node9" class="node">
<title>agents</title>
<polygon fill="white" stroke="transparent" points="1253,-50.5 1253,-200.5 1455,-200.5 1455,-50.5 1253,-50.5"/>
<polygon fill="#f1f5f9" stroke="transparent" points="1253,-175.5 1253,-200.5 1455,-200.5 1455,-175.5 1253,-175.5"/>
<polygon fill="none" stroke="black" points="1253,-175.5 1253,-200.5 1455,-200.5 1455,-175.5 1253,-175.5"/>
<text text-anchor="start" x="1332" y="-185.3" font-family="Arial" font-weight="bold" font-size="14.00">agents</text>
<polygon fill="none" stroke="black" points="1253,-150.5 1253,-175.5 1455,-175.5 1455,-150.5 1253,-150.5"/>
<text text-anchor="start" x="1258" y="-160.3" font-family="Arial" font-weight="bold" font-size="14.00">PK</text>
<text text-anchor="start" x="1277" y="-160.3" font-family="Arial" font-size="14.00"> (agent_id, project_id)</text>
<polygon fill="none" stroke="black" points="1253,-125.5 1253,-150.5 1455,-150.5 1455,-125.5 1253,-125.5"/>
<text text-anchor="start" x="1258" y="-134.3" font-family="Arial" font-size="14.00">ticket_id, role, model, phase</text>
<polygon fill="none" stroke="black" points="1253,-100.5 1253,-125.5 1455,-125.5 1455,-100.5 1253,-100.5"/>
<text text-anchor="start" x="1258" y="-109.3" font-family="Arial" font-size="14.00">status, outcome, cost_usd</text>
<polygon fill="none" stroke="black" points="1253,-75.5 1253,-100.5 1455,-100.5 1455,-75.5 1253,-75.5"/>
<text text-anchor="start" x="1258" y="-84.3" font-family="Arial" font-size="14.00">*_tokens, provenance, diff_lines</text>
<polygon fill="none" stroke="black" points="1253,-50.5 1253,-75.5 1455,-75.5 1455,-50.5 1253,-50.5"/>
<text text-anchor="start" x="1258" y="-59.3" font-family="Arial" font-size="14.00">started_at, ended_at</text>
</g>
<!-- projectstate&#45;&gt;agents -->
<g id="edge8" class="edge">
<title>projectstate:t&#45;&gt;agents:t</title>
<path fill="none" stroke="#334155" d="M888,-575.5C966.36,-575.5 903.44,-283.67 961,-230.5 1048.51,-149.67 1111.13,-225.18 1227,-197.5 1235.26,-195.53 1238.46,-191.74 1243.99,-189.77"/>
<polygon fill="#334155" stroke="#334155" points="1244.54,-192.52 1252,-188.5 1243.66,-186.98 1244.54,-192.52"/>
</g>
<!-- tickets&#45;&gt;agents -->
<g id="edge9" class="edge">
<title>tickets:t&#45;&gt;agents:t</title>
<path fill="none" stroke="#64748b" stroke-dasharray="5,2" d="M1162,-166.5C1200.28,-166.5 1209.58,-185.52 1243.79,-188.19"/>
<polygon fill="#64748b" stroke="#64748b" points="1243.9,-191 1252,-188.5 1244.11,-185.4 1243.9,-191"/>
<text text-anchor="start" x="1187" y="-188.3" font-family="Times,serif" font-size="9.00">ticket_id</text>
</g>
<!-- organizations -->
<g id="node10" class="node">
<title>organizations</title>
<polygon fill="white" stroke="transparent" points="678,-740 678,-915 916,-915 916,-740 678,-740"/>
<polygon fill="#fef9c3" stroke="transparent" points="678,-889.5 678,-914.5 916,-914.5 916,-889.5 678,-889.5"/>
<polygon fill="none" stroke="black" points="678,-889.5 678,-914.5 916,-914.5 916,-889.5 678,-889.5"/>
<text text-anchor="start" x="753" y="-899.3" font-family="Arial" font-weight="bold" font-size="14.00">organizations</text>
<polygon fill="none" stroke="black" points="678,-864.5 678,-889.5 916,-889.5 916,-864.5 678,-864.5"/>
<text text-anchor="start" x="683" y="-874.3" font-family="Arial" font-weight="bold" font-size="14.00">PK</text>
<text text-anchor="start" x="702" y="-874.3" font-family="Arial" font-size="14.00"> id</text>
<polygon fill="none" stroke="black" points="678,-839.5 678,-864.5 916,-864.5 916,-839.5 678,-839.5"/>
<text text-anchor="start" x="683" y="-848.3" font-family="Arial" font-size="14.00">name, industry, sub_focus</text>
<polygon fill="none" stroke="black" points="678,-814.5 678,-839.5 916,-839.5 916,-814.5 678,-814.5"/>
<text text-anchor="start" x="683" y="-823.3" font-family="Arial" font-size="14.00">headcount, revenue (band text)</text>
<polygon fill="none" stroke="black" points="678,-789.5 678,-814.5 916,-814.5 916,-789.5 678,-789.5"/>
<text text-anchor="start" x="683" y="-798.3" font-family="Arial" font-size="14.00">location, website, connected_systems</text>
<polygon fill="none" stroke="black" points="678,-764.5 678,-789.5 916,-789.5 916,-764.5 678,-764.5"/>
<text text-anchor="start" x="683" y="-773.3" font-family="Arial" font-size="14.00">plan, monthly_budget_cap</text>
<polygon fill="none" stroke="black" points="678,-739.5 678,-764.5 916,-764.5 916,-739.5 678,-739.5"/>
<text text-anchor="start" x="683" y="-748.3" font-family="Arial" font-size="14.00">created_at, created_by</text>
</g>
<!-- roles -->
<g id="node11" class="node">
<title>roles</title>
<polygon fill="white" stroke="transparent" points="692.5,-613.5 692.5,-713.5 901.5,-713.5 901.5,-613.5 692.5,-613.5"/>
<polygon fill="#fde68a" stroke="transparent" points="693,-688.5 693,-713.5 902,-713.5 902,-688.5 693,-688.5"/>
<polygon fill="none" stroke="black" points="693,-688.5 693,-713.5 902,-713.5 902,-688.5 693,-688.5"/>
<text text-anchor="start" x="781" y="-698.3" font-family="Arial" font-weight="bold" font-size="14.00">roles</text>
<polygon fill="none" stroke="black" points="693,-663.5 693,-688.5 902,-688.5 902,-663.5 693,-663.5"/>
<text text-anchor="start" x="698" y="-673.3" font-family="Arial" font-weight="bold" font-size="14.00">PK</text>
<text text-anchor="start" x="717" y="-673.3" font-family="Arial" font-size="14.00"> id (uuid)</text>
<polygon fill="none" stroke="black" points="693,-638.5 693,-663.5 902,-663.5 902,-638.5 693,-638.5"/>
<text text-anchor="start" x="698" y="-647.3" font-family="Arial" font-size="14.00">name : admin | member (unique)</text>
<polygon fill="none" stroke="black" points="693,-613.5 693,-638.5 902,-638.5 902,-613.5 693,-613.5"/>
<text text-anchor="start" x="698" y="-622.3" font-family="Arial" font-size="14.00">description, created_at</text>
</g>
<!-- role_permissions -->
<g id="node12" class="node">
<title>role_permissions</title>
<polygon fill="white" stroke="transparent" points="271,-437.5 271,-533.5 459,-533.5 459,-437.5 271,-437.5"/>
<polygon fill="#fde68a" stroke="transparent" points="271,-508.5 271,-533.5 459,-533.5 459,-508.5 271,-508.5"/>
<polygon fill="none" stroke="black" points="271,-508.5 271,-533.5 459,-533.5 459,-508.5 271,-508.5"/>
<text text-anchor="start" x="308.5" y="-518.3" font-family="Arial" font-weight="bold" font-size="14.00">role_permissions</text>
<polygon fill="none" stroke="black" points="271,-483.5 271,-508.5 459,-508.5 459,-483.5 271,-483.5"/>
<text text-anchor="start" x="276" y="-493.3" font-family="Arial" font-weight="bold" font-size="14.00">PK</text>
<text text-anchor="start" x="295" y="-493.3" font-family="Arial" font-size="14.00"> (role_id, permission)</text>
<polygon fill="none" stroke="black" points="271,-458.5 271,-483.5 459,-483.5 459,-458.5 271,-458.5"/>
<text text-anchor="start" x="276" y="-468.3" font-family="Arial" font-weight="bold" font-size="14.00">FK</text>
<text text-anchor="start" x="295" y="-468.3" font-family="Arial" font-size="14.00"> role_id → roles (cascade)</text>
<polygon fill="none" stroke="black" points="271,-437.5 271,-458.5 459,-458.5 459,-437.5 271,-437.5"/>
<text text-anchor="start" x="276" y="-445.5" font-family="Arial" font-size="10.00" fill="#64748b">e.g. &#39;projects.delete&#39;</text>
</g>
<!-- role_permissions&#45;&gt;roles -->
<g id="edge11" class="edge">
<title>role_permissions:t&#45;&gt;roles:t</title>
<path fill="none" stroke="#334155" d="M460,-521.5C550.53,-521.5 590.67,-522.92 652,-589.5 685.71,-626.1 644.56,-693.05 683.72,-700.77"/>
<polygon fill="#334155" stroke="#334155" points="683.78,-703.59 692,-701.5 684.28,-698.01 683.78,-703.59"/>
<text text-anchor="start" x="597.5" y="-592.3" font-family="Times,serif" font-size="9.00">role_id</text>
</g>
<!-- users -->
<g id="node13" class="node">
<title>users</title>
<polygon fill="white" stroke="transparent" points="181,-559.5 181,-909.5 549,-909.5 549,-559.5 181,-559.5"/>
<polygon fill="#fef9c3" stroke="transparent" points="181,-884.5 181,-909.5 549,-909.5 549,-884.5 181,-884.5"/>
<polygon fill="none" stroke="black" points="181,-884.5 181,-909.5 549,-909.5 549,-884.5 181,-884.5"/>
<text text-anchor="start" x="346.5" y="-894.3" font-family="Arial" font-weight="bold" font-size="14.00">users</text>
<polygon fill="none" stroke="black" points="181,-859.5 181,-884.5 549,-884.5 549,-859.5 181,-859.5"/>
<text text-anchor="start" x="186" y="-869.3" font-family="Arial" font-weight="bold" font-size="14.00">PK</text>
<text text-anchor="start" x="205" y="-869.3" font-family="Arial" font-size="14.00"> id (uuid)</text>
<polygon fill="none" stroke="black" points="181,-834.5 181,-859.5 549,-859.5 549,-834.5 181,-834.5"/>
<text text-anchor="start" x="186" y="-843.3" font-family="Arial" font-size="14.00">google_sub (unique, null until 1st sign&#45;in)</text>
<polygon fill="none" stroke="black" points="181,-809.5 181,-834.5 549,-834.5 549,-809.5 181,-809.5"/>
<text text-anchor="start" x="186" y="-818.3" font-family="Arial" font-size="14.00">email (unique) — allowlist match key</text>
<polygon fill="none" stroke="black" points="181,-784.5 181,-809.5 549,-809.5 549,-784.5 181,-784.5"/>
<text text-anchor="start" x="186" y="-794.3" font-family="Arial" font-weight="bold" font-size="14.00">FK</text>
<text text-anchor="start" x="205" y="-794.3" font-family="Arial" font-size="14.00"> role_id → roles</text>
<polygon fill="none" stroke="black" points="181,-759.5 181,-784.5 549,-784.5 549,-759.5 181,-759.5"/>
<text text-anchor="start" x="186" y="-768.3" font-family="Arial" font-size="14.00">is_internal (Tenexity staff flag)</text>
<polygon fill="none" stroke="black" points="181,-734.5 181,-759.5 549,-759.5 549,-734.5 181,-734.5"/>
<text text-anchor="start" x="186" y="-743.3" font-family="Arial" font-size="14.00">status : invited | active | disabled</text>
<polygon fill="none" stroke="black" points="181,-709.5 181,-734.5 549,-734.5 549,-709.5 181,-709.5"/>
<text text-anchor="start" x="186" y="-718.3" font-family="Arial" font-size="14.00">token_version (session revoke lever)</text>
<polygon fill="none" stroke="black" points="181,-684.5 181,-709.5 549,-709.5 549,-684.5 181,-684.5"/>
<text text-anchor="start" x="186" y="-693.3" font-family="Arial" font-size="14.00">metadata jsonb (non&#45;auth extensibility)</text>
<polygon fill="none" stroke="black" points="181,-659.5 181,-684.5 549,-684.5 549,-659.5 181,-659.5"/>
<text text-anchor="start" x="186" y="-669.3" font-family="Arial" font-weight="bold" font-size="14.00">FK</text>
<text text-anchor="start" x="205" y="-669.3" font-family="Arial" font-size="14.00"> invited_by → users; onboarded_at</text>
<polygon fill="none" stroke="black" points="181,-634.5 181,-659.5 549,-659.5 549,-634.5 181,-634.5"/>
<text text-anchor="start" x="186" y="-643.3" font-family="Arial" font-size="14.00">created_at, updated_at (trigger)</text>
<polygon fill="none" stroke="black" points="181,-609.5 181,-634.5 549,-634.5 549,-609.5 181,-609.5"/>
<text text-anchor="start" x="186" y="-619.3" font-family="Arial" font-weight="bold" font-size="14.00">FK</text>
<text text-anchor="start" x="205" y="-619.3" font-family="Arial" font-size="14.00"> org_id; designation, role_description</text>
<polygon fill="none" stroke="black" points="181,-584.5 181,-609.5 549,-609.5 549,-584.5 181,-584.5"/>
<text text-anchor="start" x="186" y="-593.3" font-family="Arial" font-size="14.00">name; sign_in_method : google | microsoft | password | sso</text>
<polygon fill="none" stroke="black" points="181,-559.5 181,-584.5 549,-584.5 549,-559.5 181,-559.5"/>
<text text-anchor="start" x="186" y="-568.3" font-family="Arial" font-size="14.00">last_active; password_hash (scrypt; null = no password)</text>
</g>
<!-- users&#45;&gt;projectstate -->
<g id="edge16" class="edge">
<title>users:t&#45;&gt;projectstate:t</title>
<path fill="none" stroke="#64748b" stroke-dasharray="5,2" d="M550,-897.5C585.55,-897.5 561.87,-772.54 575,-739.5 591.3,-698.49 652.68,-588.91 698.86,-576.62"/>
<polygon fill="#64748b" stroke="#64748b" points="699.46,-579.37 707,-575.5 698.69,-573.82 699.46,-579.37"/>
<text text-anchor="start" x="575" y="-742.3" font-family="Times,serif" font-size="9.00">owner (in JSON)</text>
</g>
<!-- users&#45;&gt;organizations -->
<g id="edge13" class="edge">
<title>users:t&#45;&gt;organizations:t</title>
<path fill="none" stroke="#334155" d="M550,-897.5C603.62,-897.5 618.98,-902.01 668.71,-902.46"/>
<polygon fill="#334155" stroke="#334155" points="668.99,-905.26 677,-902.5 669.01,-899.66 668.99,-905.26"/>
<text text-anchor="start" x="598.5" y="-904.3" font-family="Times,serif" font-size="9.00">org_id</text>
</g>
<!-- users&#45;&gt;roles -->
<g id="edge10" class="edge">
<title>users:t&#45;&gt;roles:t</title>
<path fill="none" stroke="#334155" d="M550,-897.5C562.13,-897.5 657.04,-737.91 685.34,-706.74"/>
<polygon fill="#334155" stroke="#334155" points="687.45,-708.65 692,-701.5 683.98,-704.25 687.45,-708.65"/>
<text text-anchor="start" x="597.5" y="-867.3" font-family="Times,serif" font-size="9.00">role_id</text>
</g>
<!-- users&#45;&gt;users -->
<g id="edge12" class="edge">
<title>users:t&#45;&gt;users:t</title>
<path fill="none" stroke="#64748b" stroke-dasharray="5,2" d="M180.78,-904.22C108.89,-904.54 49,-902.3 49,-897.5 49,-892.89 104.31,-890.64 172.41,-890.75"/>
<polygon fill="#64748b" stroke="#64748b" points="172.77,-893.56 180.78,-890.78 172.79,-887.96 172.77,-893.56"/>
<text text-anchor="start" x="0" y="-732.3" font-family="Times,serif" font-size="9.00">invited_by</text>
</g>
<!-- blobs -->
<g id="node14" class="node">
<title>blobs</title>
<polygon fill="white" stroke="transparent" points="698.5,-247.5 698.5,-397.5 895.5,-397.5 895.5,-247.5 698.5,-247.5"/>
<polygon fill="#ecfdf5" stroke="transparent" points="699,-372.5 699,-397.5 896,-397.5 896,-372.5 699,-372.5"/>
<polygon fill="none" stroke="black" points="699,-372.5 699,-397.5 896,-397.5 896,-372.5 699,-372.5"/>
<text text-anchor="start" x="779" y="-382.3" font-family="Arial" font-weight="bold" font-size="14.00">blobs</text>
<polygon fill="none" stroke="black" points="699,-347.5 699,-372.5 896,-372.5 896,-347.5 699,-347.5"/>
<text text-anchor="start" x="704" y="-357.3" font-family="Arial" font-weight="bold" font-size="14.00">PK</text>
<text text-anchor="start" x="723" y="-357.3" font-family="Arial" font-size="14.00"> id</text>
<polygon fill="none" stroke="black" points="699,-322.5 699,-347.5 896,-347.5 896,-322.5 699,-322.5"/>
<text text-anchor="start" x="704" y="-331.3" font-family="Arial" font-size="14.00">scope : project | org, scope_id</text>
<polygon fill="none" stroke="black" points="699,-297.5 699,-322.5 896,-322.5 896,-297.5 699,-297.5"/>
<text text-anchor="start" x="704" y="-306.3" font-family="Arial" font-size="14.00">kind, name, tag</text>
<polygon fill="none" stroke="black" points="699,-272.5 699,-297.5 896,-297.5 896,-272.5 699,-272.5"/>
<text text-anchor="start" x="704" y="-281.3" font-family="Arial" font-size="14.00">storage_key, content_type</text>
<polygon fill="none" stroke="black" points="699,-247.5 699,-272.5 896,-272.5 896,-247.5 699,-247.5"/>
<text text-anchor="start" x="704" y="-256.3" font-family="Arial" font-size="14.00">size_bytes, sha256, created_at</text>
</g>
<!-- blob_uses -->
<g id="node15" class="node">
<title>blob_uses</title>
<polygon fill="white" stroke="transparent" points="296.5,-256.5 296.5,-402.5 433.5,-402.5 433.5,-256.5 296.5,-256.5"/>
<polygon fill="#ecfdf5" stroke="transparent" points="297,-377.5 297,-402.5 434,-402.5 434,-377.5 297,-377.5"/>
<polygon fill="none" stroke="black" points="297,-377.5 297,-402.5 434,-402.5 434,-377.5 297,-377.5"/>
<text text-anchor="start" x="332" y="-387.3" font-family="Arial" font-weight="bold" font-size="14.00">blob_uses</text>
<polygon fill="none" stroke="black" points="297,-352.5 297,-377.5 434,-377.5 434,-352.5 297,-352.5"/>
<text text-anchor="start" x="302" y="-362.3" font-family="Arial" font-weight="bold" font-size="14.00">PK</text>
<text text-anchor="start" x="321" y="-362.3" font-family="Arial" font-size="14.00"> id</text>
<polygon fill="none" stroke="black" points="297,-327.5 297,-352.5 434,-352.5 434,-327.5 297,-327.5"/>
<text text-anchor="start" x="302" y="-337.3" font-family="Arial" font-weight="bold" font-size="14.00">FK</text>
<text text-anchor="start" x="321" y="-337.3" font-family="Arial" font-size="14.00"> blob_id</text>
<polygon fill="none" stroke="black" points="297,-302.5 297,-327.5 434,-327.5 434,-302.5 297,-302.5"/>
<text text-anchor="start" x="302" y="-312.3" font-family="Arial" font-weight="bold" font-size="14.00">FK</text>
<text text-anchor="start" x="321" y="-312.3" font-family="Arial" font-size="14.00"> project_id</text>
<polygon fill="none" stroke="black" points="297,-277.5 297,-302.5 434,-302.5 434,-277.5 297,-277.5"/>
<text text-anchor="start" x="302" y="-286.3" font-family="Arial" font-size="14.00">created_at</text>
<polygon fill="none" stroke="black" points="297,-256.5 297,-277.5 434,-277.5 434,-256.5 297,-256.5"/>
<text text-anchor="start" x="302" y="-264.5" font-family="Arial" font-size="10.00" fill="#64748b">org KB doc used by a project</text>
</g>
<!-- blob_uses&#45;&gt;projectstate -->
<g id="edge15" class="edge">
<title>blob_uses:t&#45;&gt;projectstate:t</title>
<path fill="none" stroke="#64748b" stroke-dasharray="5,2" d="M435,-390.5C542.93,-390.5 577.3,-421.6 652,-499.5 678.83,-527.48 667.27,-569.12 699.02,-574.84"/>
<polygon fill="#64748b" stroke="#64748b" points="698.8,-577.63 707,-575.5 699.26,-572.05 698.8,-577.63"/>
</g>
<!-- blob_uses&#45;&gt;blobs -->
<g id="edge14" class="edge">
<title>blob_uses:t&#45;&gt;blobs:t</title>
<path fill="none" stroke="#334155" d="M435,-390.5C549.17,-390.5 579.67,-385.73 689.92,-385.51"/>
<polygon fill="#334155" stroke="#334155" points="690,-388.31 698,-385.5 690,-382.71 690,-388.31"/>
</g>
</g>
</svg>
