<?xml version="1.0" encoding="UTF-8" standalone="no"?>
<!DOCTYPE svg PUBLIC "-//W3C//DTD SVG 1.1//EN"
 "http://www.w3.org/Graphics/SVG/1.1/DTD/svg11.dtd">
<!-- Generated by graphviz version 2.43.0 (0)
 -->
<!-- Title: SchemaERD Pages: 1 -->
<svg width="1471pt" height="1094pt"
 viewBox="0.00 0.00 1471.00 1093.50" xmlns="http://www.w3.org/2000/svg" xmlns:xlink="http://www.w3.org/1999/xlink">
<g id="graph0" class="graph" transform="scale(1 1) rotate(0) translate(4 1089.5)">
<title>SchemaERD</title>
<polygon fill="#f8fafc" stroke="transparent" points="-4,4 -4,-1089.5 1467,-1089.5 1467,4 -4,4"/>
<text text-anchor="start" x="617" y="-1064.9" font-family="Arial" font-weight="bold" font-size="22.00">Console Schema ERD</text>
<text text-anchor="start" x="306.5" y="-1050.1" font-family="Arial" font-size="13.00" fill="#475569">One flat </text>
<text text-anchor="start" x="357.5" y="-1050.1" font-family="monospace" font-size="13.00" fill="#475569">public</text>
<text text-anchor="start" x="403.5" y="-1050.1" font-family="Arial" font-size="13.00" fill="#475569"> schema — per&#45;project tables keyed by project_id; global directory tables are single row&#45;sets. (src/software_factory/models.py)</text>
<!-- projectstate -->
<g id="node1" class="node">
<title>projectstate</title>
<polygon fill="white" stroke="transparent" points="716,-459.5 716,-587.5 878,-587.5 878,-459.5 716,-459.5"/>
<polygon fill="#e0f2fe" stroke="transparent" points="716,-562.5 716,-587.5 878,-587.5 878,-562.5 716,-562.5"/>
<polygon fill="none" stroke="black" points="716,-562.5 716,-587.5 878,-587.5 878,-562.5 716,-562.5"/>
<text text-anchor="start" x="758.5" y="-572.3" font-family="Arial" font-weight="bold" font-size="14.00">projectstate</text>
<polygon fill="none" stroke="black" points="716,-537.5 716,-562.5 878,-562.5 878,-537.5 716,-537.5"/>
<text text-anchor="start" x="721" y="-547.3" font-family="Arial" font-weight="bold" font-size="14.00">PK</text>
<text text-anchor="start" x="740" y="-547.3" font-family="Arial" font-size="14.00"> project_id</text>
<polygon fill="none" stroke="black" points="716,-512.5 716,-537.5 878,-537.5 878,-512.5 716,-512.5"/>
<text text-anchor="start" x="721" y="-521.3" font-family="Arial" font-size="14.00">data : ProjectState JSON</text>
<polygon fill="none" stroke="black" points="716,-480.5 716,-512.5 878,-512.5 878,-480.5 716,-480.5"/>
<text text-anchor="start" x="721" y="-499.5" font-family="Arial" font-size="10.00" fill="#64748b">(JSON holds name, owner, phase,</text>
<text text-anchor="start" x="734" y="-488.5" font-family="Arial" font-size="10.00" fill="#64748b">stage, models, budget, brief)</text>
<polygon fill="none" stroke="black" points="716,-459.5 716,-480.5 878,-480.5 878,-459.5 716,-459.5"/>
<text text-anchor="start" x="721" y="-467.5" font-family="Arial" font-size="10.00" fill="#64748b">also the project registry</text>
</g>
<!-- phases -->
<g id="node2" class="node">
<title>phases</title>
<polygon fill="white" stroke="transparent" points="991.5,-938.5 991.5,-1038.5 1138.5,-1038.5 1138.5,-938.5 991.5,-938.5"/>
<polygon fill="#f1f5f9" stroke="transparent" points="992,-1013.5 992,-1038.5 1139,-1038.5 1139,-1013.5 992,-1013.5"/>
<polygon fill="none" stroke="black" points="992,-1013.5 992,-1038.5 1139,-1038.5 1139,-1013.5 992,-1013.5"/>
<text text-anchor="start" x="1042" y="-1023.3" font-family="Arial" font-weight="bold" font-size="14.00">phases</text>
<polygon fill="none" stroke="black" points="992,-988.5 992,-1013.5 1139,-1013.5 1139,-988.5 992,-988.5"/>
<text text-anchor="start" x="997" y="-998.3" font-family="Arial" font-weight="bold" font-size="14.00">PK</text>
<text text-anchor="start" x="1016" y="-998.3" font-family="Arial" font-size="14.00"> id</text>
<polygon fill="none" stroke="black" points="992,-963.5 992,-988.5 1139,-988.5 1139,-963.5 992,-963.5"/>
<text text-anchor="start" x="997" y="-973.3" font-family="Arial" font-weight="bold" font-size="14.00">FK</text>
<text text-anchor="start" x="1016" y="-973.3" font-family="Arial" font-size="14.00"> project_id</text>
<polygon fill="none" stroke="black" points="992,-938.5 992,-963.5 1139,-963.5 1139,-938.5 992,-938.5"/>
<text text-anchor="start" x="997" y="-947.3" font-family="Arial" font-size="14.00">name, status, stage, ts</text>
</g>
<!-- projectstate&#45;&gt;phases -->
<g id="edge1" class="edge">
<title>projectstate:t&#45;&gt;phases:t</title>
<path fill="none" stroke="#334155" d="M879,-575.5C902.79,-575.5 911.97,-583.97 924,-604.5 956.97,-660.79 928.26,-833.73 942,-897.5 954.31,-954.64 931.95,-1020.05 982.93,-1026.05"/>
<polygon fill="#334155" stroke="#334155" points="982.86,-1028.85 991,-1026.5 983.17,-1023.26 982.86,-1028.85"/>
</g>
<!-- artifacts -->
<g id="node3" class="node">
<title>artifacts</title>
<polygon fill="white" stroke="transparent" points="986.5,-791 986.5,-912 1143.5,-912 1143.5,-791 986.5,-791"/>
<polygon fill="#f1f5f9" stroke="transparent" points="987,-886.5 987,-911.5 1144,-911.5 1144,-886.5 987,-886.5"/>
<polygon fill="none" stroke="black" points="987,-886.5 987,-911.5 1144,-911.5 1144,-886.5 987,-886.5"/>
<text text-anchor="start" x="1039" y="-896.3" font-family="Arial" font-weight="bold" font-size="14.00">artifacts</text>
<polygon fill="none" stroke="black" points="987,-861.5 987,-886.5 1144,-886.5 1144,-861.5 987,-861.5"/>
<text text-anchor="start" x="992" y="-871.3" font-family="Arial" font-weight="bold" font-size="14.00">PK</text>
<text text-anchor="start" x="1011" y="-871.3" font-family="Arial" font-size="14.00"> id</text>
<polygon fill="none" stroke="black" points="987,-836.5 987,-861.5 1144,-861.5 1144,-836.5 987,-836.5"/>
<text text-anchor="start" x="992" y="-846.3" font-family="Arial" font-weight="bold" font-size="14.00">FK</text>
<text text-anchor="start" x="1011" y="-846.3" font-family="Arial" font-size="14.00"> project_id</text>
<polygon fill="none" stroke="black" points="987,-811.5 987,-836.5 1144,-836.5 1144,-811.5 987,-811.5"/>
<text text-anchor="start" x="992" y="-820.3" font-family="Arial" font-size="14.00">title, path, kind, agent, ts</text>
<polygon fill="none" stroke="black" points="987,-790.5 987,-811.5 1144,-811.5 1144,-790.5 987,-790.5"/>
<text text-anchor="start" x="992" y="-798.5" font-family="Arial" font-size="10.00" fill="#64748b">metadata only; bytes via blobs</text>
</g>
<!-- projectstate&#45;&gt;artifacts -->
<g id="edge2" class="edge">
<title>projectstate:t&#45;&gt;artifacts:t</title>
<path fill="none" stroke="#334155" d="M879,-575.5C1027.84,-575.5 841.52,-887.59 977.91,-899.17"/>
<polygon fill="#334155" stroke="#334155" points="977.89,-901.97 986,-899.5 978.12,-896.38 977.89,-901.97"/>
</g>
<!-- blockers -->
<g id="node4" class="node">
<title>blockers</title>
<polygon fill="white" stroke="transparent" points="987.5,-664.5 987.5,-764.5 1142.5,-764.5 1142.5,-664.5 987.5,-664.5"/>
<polygon fill="#f1f5f9" stroke="transparent" points="988,-739.5 988,-764.5 1143,-764.5 1143,-739.5 988,-739.5"/>
<polygon fill="none" stroke="black" points="988,-739.5 988,-764.5 1143,-764.5 1143,-739.5 988,-739.5"/>
<text text-anchor="start" x="1037.5" y="-749.3" font-family="Arial" font-weight="bold" font-size="14.00">blockers</text>
<polygon fill="none" stroke="black" points="988,-714.5 988,-739.5 1143,-739.5 1143,-714.5 988,-714.5"/>
<text text-anchor="start" x="993" y="-724.3" font-family="Arial" font-weight="bold" font-size="14.00">PK</text>
<text text-anchor="start" x="1012" y="-724.3" font-family="Arial" font-size="14.00"> id</text>
<polygon fill="none" stroke="black" points="988,-689.5 988,-714.5 1143,-714.5 1143,-689.5 988,-689.5"/>
<text text-anchor="start" x="993" y="-699.3" font-family="Arial" font-weight="bold" font-size="14.00">FK</text>
<text text-anchor="start" x="1012" y="-699.3" font-family="Arial" font-size="14.00"> project_id</text>
<polygon fill="none" stroke="black" points="988,-664.5 988,-689.5 1143,-689.5 1143,-664.5 988,-664.5"/>
<text text-anchor="start" x="993" y="-673.3" font-family="Arial" font-size="14.00">what, blocks, cleared, ts</text>
</g>
<!-- projectstate&#45;&gt;blockers -->
<g id="edge3" class="edge">
<title>projectstate:t&#45;&gt;blockers:t</title>
<path fill="none" stroke="#334155" d="M879,-575.5C902.79,-575.5 908.66,-586.31 924,-604.5 968.19,-656.92 919.82,-744.91 978.82,-752.04"/>
<polygon fill="#334155" stroke="#334155" points="978.85,-754.84 987,-752.5 979.17,-749.25 978.85,-754.84"/>
</g>
<!-- gates -->
<g id="node5" class="node">
<title>gates</title>
<polygon fill="white" stroke="transparent" points="993.5,-563 993.5,-638 1136.5,-638 1136.5,-563 993.5,-563"/>
<polygon fill="#f1f5f9" stroke="transparent" points="994,-612.5 994,-637.5 1137,-637.5 1137,-612.5 994,-612.5"/>
<polygon fill="none" stroke="black" points="994,-612.5 994,-637.5 1137,-637.5 1137,-612.5 994,-612.5"/>
<text text-anchor="start" x="1047.5" y="-622.3" font-family="Arial" font-weight="bold" font-size="14.00">gates</text>
<polygon fill="none" stroke="black" points="994,-587.5 994,-612.5 1137,-612.5 1137,-587.5 994,-587.5"/>
<text text-anchor="start" x="999" y="-597.3" font-family="Arial" font-weight="bold" font-size="14.00">PK</text>
<text text-anchor="start" x="1018" y="-597.3" font-family="Arial" font-size="14.00"> (project_id, name)</text>
<polygon fill="none" stroke="black" points="994,-562.5 994,-587.5 1137,-587.5 1137,-562.5 994,-562.5"/>
<text text-anchor="start" x="999" y="-571.3" font-family="Arial" font-size="14.00">status, ts</text>
</g>
<!-- projectstate&#45;&gt;gates -->
<g id="edge4" class="edge">
<title>projectstate:t&#45;&gt;gates:t</title>
<path fill="none" stroke="#334155" d="M879,-575.5C931.52,-575.5 937.2,-620.55 984.96,-625.13"/>
<polygon fill="#334155" stroke="#334155" points="984.88,-627.93 993,-625.5 985.14,-622.33 984.88,-627.93"/>
</g>
<!-- verifications -->
<g id="node6" class="node">
<title>verifications</title>
<polygon fill="white" stroke="transparent" points="997.5,-416 997.5,-537 1132.5,-537 1132.5,-416 997.5,-416"/>
<polygon fill="#f1f5f9" stroke="transparent" points="998,-511.5 998,-536.5 1133,-536.5 1133,-511.5 998,-511.5"/>
<polygon fill="none" stroke="black" points="998,-511.5 998,-536.5 1133,-536.5 1133,-511.5 998,-511.5"/>
<text text-anchor="start" x="1025.5" y="-521.3" font-family="Arial" font-weight="bold" font-size="14.00">verifications</text>
<polygon fill="none" stroke="black" points="998,-486.5 998,-511.5 1133,-511.5 1133,-486.5 998,-486.5"/>
<text text-anchor="start" x="1003" y="-496.3" font-family="Arial" font-weight="bold" font-size="14.00">PK</text>
<text text-anchor="start" x="1022" y="-496.3" font-family="Arial" font-size="14.00"> id</text>
<polygon fill="none" stroke="black" points="998,-461.5 998,-486.5 1133,-486.5 1133,-461.5 998,-461.5"/>
<text text-anchor="start" x="1003" y="-471.3" font-family="Arial" font-weight="bold" font-size="14.00">FK</text>
<text text-anchor="start" x="1022" y="-471.3" font-family="Arial" font-size="14.00"> project_id</text>
<polygon fill="none" stroke="black" points="998,-436.5 998,-461.5 1133,-461.5 1133,-436.5 998,-436.5"/>
<text text-anchor="start" x="1003" y="-445.3" font-family="Arial" font-size="14.00">url, passed, result, ts</text>
<polygon fill="none" stroke="black" points="998,-415.5 998,-436.5 1133,-436.5 1133,-415.5 998,-415.5"/>
<text text-anchor="start" x="1003" y="-423.5" font-family="Arial" font-size="10.00" fill="#64748b">passed = Stage 3 done gate</text>
</g>
<!-- projectstate&#45;&gt;verifications -->
<g id="edge5" class="edge">
<title>projectstate:t&#45;&gt;verifications:t</title>
<path fill="none" stroke="#334155" d="M879,-575.5C933.34,-575.5 939.37,-529.36 989,-524.85"/>
<polygon fill="#334155" stroke="#334155" points="989.13,-527.65 997,-524.5 988.88,-522.06 989.13,-527.65"/>
</g>
<!-- deployments -->
<g id="node7" class="node">
<title>deployments</title>
<polygon fill="white" stroke="transparent" points="991,-243.5 991,-389.5 1139,-389.5 1139,-243.5 991,-243.5"/>
<polygon fill="#f1f5f9" stroke="transparent" points="991,-364.5 991,-389.5 1139,-389.5 1139,-364.5 991,-364.5"/>
<polygon fill="none" stroke="black" points="991,-364.5 991,-389.5 1139,-389.5 1139,-364.5 991,-364.5"/>
<text text-anchor="start" x="1022.5" y="-374.3" font-family="Arial" font-weight="bold" font-size="14.00">deployments</text>
<polygon fill="none" stroke="black" points="991,-339.5 991,-364.5 1139,-364.5 1139,-339.5 991,-339.5"/>
<text text-anchor="start" x="996" y="-349.3" font-family="Arial" font-weight="bold" font-size="14.00">PK</text>
<text text-anchor="start" x="1015" y="-349.3" font-family="Arial" font-size="14.00"> id</text>
<polygon fill="none" stroke="black" points="991,-314.5 991,-339.5 1139,-339.5 1139,-314.5 991,-314.5"/>
<text text-anchor="start" x="996" y="-324.3" font-family="Arial" font-weight="bold" font-size="14.00">FK</text>
<text text-anchor="start" x="1015" y="-324.3" font-family="Arial" font-size="14.00"> project_id</text>
<polygon fill="none" stroke="black" points="991,-289.5 991,-314.5 1139,-314.5 1139,-289.5 991,-289.5"/>
<text text-anchor="start" x="996" y="-298.3" font-family="Arial" font-size="14.00">app, service_name, url</text>
<polygon fill="none" stroke="black" points="991,-264.5 991,-289.5 1139,-289.5 1139,-264.5 991,-264.5"/>
<text text-anchor="start" x="996" y="-273.3" font-family="Arial" font-size="14.00">status, verified, ts</text>
<polygon fill="none" stroke="black" points="991,-243.5 991,-264.5 1139,-264.5 1139,-243.5 991,-243.5"/>
<text text-anchor="start" x="996" y="-251.5" font-family="Arial" font-size="10.00" fill="#64748b">1..N deliverables per project</text>
</g>
<!-- projectstate&#45;&gt;deployments -->
<g id="edge6" class="edge">
<title>projectstate:t&#45;&gt;deployments:t</title>
<path fill="none" stroke="#334155" d="M879,-575.5C977.03,-575.5 894.1,-388.56 981.88,-377.97"/>
<polygon fill="#334155" stroke="#334155" points="982.17,-380.76 990,-377.5 981.85,-375.16 982.17,-380.76"/>
</g>
<!-- tickets -->
<g id="node8" class="node">
<title>tickets</title>
<polygon fill="white" stroke="transparent" points="969,-4 969,-179 1161,-179 1161,-4 969,-4"/>
<polygon fill="#f1f5f9" stroke="transparent" points="969,-153.5 969,-178.5 1161,-178.5 1161,-153.5 969,-153.5"/>
<polygon fill="none" stroke="black" points="969,-153.5 969,-178.5 1161,-178.5 1161,-153.5 969,-153.5"/>
<text text-anchor="start" x="1043.5" y="-163.3" font-family="Arial" font-weight="bold" font-size="14.00">tickets</text>
<polygon fill="none" stroke="black" points="969,-128.5 969,-153.5 1161,-153.5 1161,-128.5 969,-128.5"/>
<text text-anchor="start" x="974" y="-138.3" font-family="Arial" font-weight="bold" font-size="14.00">PK</text>
<text text-anchor="start" x="993" y="-138.3" font-family="Arial" font-size="14.00"> id</text>
<polygon fill="none" stroke="black" points="969,-103.5 969,-128.5 1161,-128.5 1161,-103.5 969,-103.5"/>
<text text-anchor="start" x="974" y="-113.3" font-family="Arial" font-weight="bold" font-size="14.00">FK</text>
<text text-anchor="start" x="993" y="-113.3" font-family="Arial" font-size="14.00"> project_id</text>
<polygon fill="none" stroke="black" points="969,-78.5 969,-103.5 1161,-103.5 1161,-78.5 969,-78.5"/>
<text text-anchor="start" x="974" y="-87.3" font-family="Arial" font-size="14.00">title, acceptance, dod, wave</text>
<polygon fill="none" stroke="black" points="969,-53.5 969,-78.5 1161,-78.5 1161,-53.5 969,-53.5"/>
<text text-anchor="start" x="974" y="-62.3" font-family="Arial" font-size="14.00">status (6&#45;state), agent, app</text>
<polygon fill="none" stroke="black" points="969,-28.5 969,-53.5 1161,-53.5 1161,-28.5 969,-28.5"/>
<text text-anchor="start" x="974" y="-37.3" font-family="Arial" font-size="14.00">provenance, provenance_type</text>
<polygon fill="none" stroke="black" points="969,-3.5 969,-28.5 1161,-28.5 1161,-3.5 969,-3.5"/>
<text text-anchor="start" x="974" y="-12.3" font-family="Arial" font-size="14.00">diff_lines, description</text>
</g>
<!-- projectstate&#45;&gt;tickets -->
<g id="edge7" class="edge">
<title>projectstate:t&#45;&gt;tickets:t</title>
<path fill="none" stroke="#334155" d="M879,-575.5C941.82,-575.5 911.59,-503.09 924,-441.5 935.65,-383.67 908.84,-186.26 959.89,-167.87"/>
<polygon fill="#334155" stroke="#334155" points="960.58,-170.6 968,-166.5 959.64,-165.08 960.58,-170.6"/>
</g>
<!-- agents -->
<g id="node9" class="node">
<title>agents</title>
<polygon fill="white" stroke="transparent" points="1253,-50.5 1253,-200.5 1455,-200.5 1455,-50.5 1253,-50.5"/>
<polygon fill="#f1f5f9" stroke="transparent" points="1253,-175.5 1253,-200.5 1455,-200.5 1455,-175.5 1253,-175.5"/>
<polygon fill="none" stroke="black" points="1253,-175.5 1253,-200.5 1455,-200.5 1455,-175.5 1253,-175.5"/>
<text text-anchor="start" x="1332" y="-185.3" font-family="Arial" font-weight="bold" font-size="14.00">agents</text>
<polygon fill="none" stroke="black" points="1253,-150.5 1253,-175.5 1455,-175.5 1455,-150.5 1253,-150.5"/>
<text text-anchor="start" x="1258" y="-160.3" font-family="Arial" font-weight="bold" font-size="14.00">PK</text>
<text text-anchor="start" x="1277" y="-160.3" font-family="Arial" font-size="14.00"> (agent_id, project_id)</text>
<polygon fill="none" stroke="black" points="1253,-125.5 1253,-150.5 1455,-150.5 1455,-125.5 1253,-125.5"/>
<text text-anchor="start" x="1258" y="-134.3" font-family="Arial" font-size="14.00">ticket_id, role, model, phase</text>
<polygon fill="none" stroke="black" points="1253,-100.5 1253,-125.5 1455,-125.5 1455,-100.5 1253,-100.5"/>
<text text-anchor="start" x="1258" y="-109.3" font-family="Arial" font-size="14.00">status, outcome, cost_usd</text>
<polygon fill="none" stroke="black" points="1253,-75.5 1253,-100.5 1455,-100.5 1455,-75.5 1253,-75.5"/>
<text text-anchor="start" x="1258" y="-84.3" font-family="Arial" font-size="14.00">*_tokens, provenance, diff_lines</text>
<polygon fill="none" stroke="black" points="1253,-50.5 1253,-75.5 1455,-75.5 1455,-50.5 1253,-50.5"/>
<text text-anchor="start" x="1258" y="-59.3" font-family="Arial" font-size="14.00">started_at, ended_at</text>
</g>
<!-- projectstate&#45;&gt;agents -->
<g id="edge8" class="edge">
<title>projectstate:t&#45;&gt;agents:t</title>
<path fill="none" stroke="#334155" d="M879,-575.5C941.82,-575.5 908.53,-502.39 924,-441.5 947.44,-349.22 892.01,-296.11 961,-230.5 1004.16,-189.45 1169.07,-211.34 1227,-197.5 1235.26,-195.53 1238.46,-191.74 1243.99,-189.77"/>
<polygon fill="#334155" stroke="#334155" points="1244.54,-192.52 1252,-188.5 1243.66,-186.98 1244.54,-192.52"/>
</g>
<!-- tickets&#45;&gt;agents -->
<g id="edge9" class="edge">
<title>tickets:t&#45;&gt;agents:t</title>
<path fill="none" stroke="#64748b" stroke-dasharray="5,2" d="M1162,-166.5C1200.28,-166.5 1209.58,-185.52 1243.79,-188.19"/>
<polygon fill="#64748b" stroke="#64748b" points="1243.9,-191 1252,-188.5 1244.11,-185.4 1243.9,-191"/>
<text text-anchor="start" x="1187" y="-188.3" font-family="Times,serif" font-size="9.00">ticket_id</text>
</g>
<!-- organizations -->
<g id="node10" class="node">
<title>organizations</title>
<polygon fill="white" stroke="transparent" points="678,-752 678,-927 916,-927 916,-752 678,-752"/>
<polygon fill="#fef9c3" stroke="transparent" points="678,-901.5 678,-926.5 916,-926.5 916,-901.5 678,-901.5"/>
<polygon fill="none" stroke="black" points="678,-901.5 678,-926.5 916,-926.5 916,-901.5 678,-901.5"/>
<text text-anchor="start" x="753" y="-911.3" font-family="Arial" font-weight="bold" font-size="14.00">organizations</text>
<polygon fill="none" stroke="black" points="678,-876.5 678,-901.5 916,-901.5 916,-876.5 678,-876.5"/>
<text text-anchor="start" x="683" y="-886.3" font-family="Arial" font-weight="bold" font-size="14.00">PK</text>
<text text-anchor="start" x="702" y="-886.3" font-family="Arial" font-size="14.00"> id</text>
<polygon fill="none" stroke="black" points="678,-851.5 678,-876.5 916,-876.5 916,-851.5 678,-851.5"/>
<text text-anchor="start" x="683" y="-860.3" font-family="Arial" font-size="14.00">name, industry, sub_focus</text>
<polygon fill="none" stroke="black" points="678,-826.5 678,-851.5 916,-851.5 916,-826.5 678,-826.5"/>
<text text-anchor="start" x="683" y="-835.3" font-family="Arial" font-size="14.00">headcount, revenue (band text)</text>
<polygon fill="none" stroke="black" points="678,-801.5 678,-826.5 916,-826.5 916,-801.5 678,-801.5"/>
<text text-anchor="start" x="683" y="-810.3" font-family="Arial" font-size="14.00">location, website, connected_systems</text>
<polygon fill="none" stroke="black" points="678,-776.5 678,-801.5 916,-801.5 916,-776.5 678,-776.5"/>
<text text-anchor="start" x="683" y="-785.3" font-family="Arial" font-size="14.00">plan, monthly_budget_cap</text>
<polygon fill="none" stroke="black" points="678,-751.5 678,-776.5 916,-776.5 916,-751.5 678,-751.5"/>
<text text-anchor="start" x="683" y="-760.3" font-family="Arial" font-size="14.00">created_at, created_by</text>
</g>
<!-- roles -->
<g id="node11" class="node">
<title>roles</title>
<polygon fill="white" stroke="transparent" points="692.5,-617.5 692.5,-717.5 901.5,-717.5 901.5,-617.5 692.5,-617.5"/>
<polygon fill="#fde68a" stroke="transparent" points="693,-692.5 693,-717.5 902,-717.5 902,-692.5 693,-692.5"/>
<polygon fill="none" stroke="black" points="693,-692.5 693,-717.5 902,-717.5 902,-692.5 693,-692.5"/>
<text text-anchor="start" x="781" y="-702.3" font-family="Arial" font-weight="bold" font-size="14.00">roles</text>
<polygon fill="none" stroke="black" points="693,-667.5 693,-692.5 902,-692.5 902,-667.5 693,-667.5"/>
<text text-anchor="start" x="698" y="-677.3" font-family="Arial" font-weight="bold" font-size="14.00">PK</text>
<text text-anchor="start" x="717" y="-677.3" font-family="Arial" font-size="14.00"> id (uuid)</text>
<polygon fill="none" stroke="black" points="693,-642.5 693,-667.5 902,-667.5 902,-642.5 693,-642.5"/>
<text text-anchor="start" x="698" y="-651.3" font-family="Arial" font-size="14.00">name : admin | member (unique)</text>
<polygon fill="none" stroke="black" points="693,-617.5 693,-642.5 902,-642.5 902,-617.5 693,-617.5"/>
<text text-anchor="start" x="698" y="-626.3" font-family="Arial" font-size="14.00">description, created_at</text>
</g>
<!-- role_permissions -->
<g id="node12" class="node">
<title>role_permissions</title>
<polygon fill="white" stroke="transparent" points="271,-454.5 271,-550.5 459,-550.5 459,-454.5 271,-454.5"/>
<polygon fill="#fde68a" stroke="transparent" points="271,-525.5 271,-550.5 459,-550.5 459,-525.5 271,-525.5"/>
<polygon fill="none" stroke="black" points="271,-525.5 271,-550.5 459,-550.5 459,-525.5 271,-525.5"/>
<text text-anchor="start" x="308.5" y="-535.3" font-family="Arial" font-weight="bold" font-size="14.00">role_permissions</text>
<polygon fill="none" stroke="black" points="271,-500.5 271,-525.5 459,-525.5 459,-500.5 271,-500.5"/>
<text text-anchor="start" x="276" y="-510.3" font-family="Arial" font-weight="bold" font-size="14.00">PK</text>
<text text-anchor="start" x="295" y="-510.3" font-family="Arial" font-size="14.00"> (role_id, permission)</text>
<polygon fill="none" stroke="black" points="271,-475.5 271,-500.5 459,-500.5 459,-475.5 271,-475.5"/>
<text text-anchor="start" x="276" y="-485.3" font-family="Arial" font-weight="bold" font-size="14.00">FK</text>
<text text-anchor="start" x="295" y="-485.3" font-family="Arial" font-size="14.00"> role_id → roles (cascade)</text>
<polygon fill="none" stroke="black" points="271,-454.5 271,-475.5 459,-475.5 459,-454.5 271,-454.5"/>
<text text-anchor="start" x="276" y="-462.5" font-family="Arial" font-size="10.00" fill="#64748b">e.g. &#39;projects.delete&#39;</text>
</g>
<!-- role_permissions&#45;&gt;roles -->
<g id="edge11" class="edge">
<title>role_permissions:t&#45;&gt;roles:t</title>
<path fill="none" stroke="#334155" d="M460,-538.5C545.36,-538.5 585.48,-490 652,-543.5 678.52,-564.83 658.81,-683.51 684.08,-702.84"/>
<polygon fill="#334155" stroke="#334155" points="683.52,-705.61 692,-705.5 685.31,-700.3 683.52,-705.61"/>
<text text-anchor="start" x="597.5" y="-546.3" font-family="Times,serif" font-size="9.00">role_id</text>
</g>
<!-- users -->
<g id="node13" class="node">
<title>users</title>
<polygon fill="white" stroke="transparent" points="181,-576.5 181,-926.5 549,-926.5 549,-576.5 181,-576.5"/>
<polygon fill="#fef9c3" stroke="transparent" points="181,-901.5 181,-926.5 549,-926.5 549,-901.5 181,-901.5"/>
<polygon fill="none" stroke="black" points="181,-901.5 181,-926.5 549,-926.5 549,-901.5 181,-901.5"/>
<text text-anchor="start" x="346.5" y="-911.3" font-family="Arial" font-weight="bold" font-size="14.00">users</text>
<polygon fill="none" stroke="black" points="181,-876.5 181,-901.5 549,-901.5 549,-876.5 181,-876.5"/>
<text text-anchor="start" x="186" y="-886.3" font-family="Arial" font-weight="bold" font-size="14.00">PK</text>
<text text-anchor="start" x="205" y="-886.3" font-family="Arial" font-size="14.00"> id (uuid)</text>
<polygon fill="none" stroke="black" points="181,-851.5 181,-876.5 549,-876.5 549,-851.5 181,-851.5"/>
<text text-anchor="start" x="186" y="-860.3" font-family="Arial" font-size="14.00">google_sub (unique, null until 1st sign&#45;in)</text>
<polygon fill="none" stroke="black" points="181,-826.5 181,-851.5 549,-851.5 549,-826.5 181,-826.5"/>
<text text-anchor="start" x="186" y="-835.3" font-family="Arial" font-size="14.00">email (unique) — allowlist match key</text>
<polygon fill="none" stroke="black" points="181,-801.5 181,-826.5 549,-826.5 549,-801.5 181,-801.5"/>
<text text-anchor="start" x="186" y="-811.3" font-family="Arial" font-weight="bold" font-size="14.00">FK</text>
<text text-anchor="start" x="205" y="-811.3" font-family="Arial" font-size="14.00"> role_id → roles</text>
<polygon fill="none" stroke="black" points="181,-776.5 181,-801.5 549,-801.5 549,-776.5 181,-776.5"/>
<text text-anchor="start" x="186" y="-785.3" font-family="Arial" font-size="14.00">is_internal (Tenexity staff flag)</text>
<polygon fill="none" stroke="black" points="181,-751.5 181,-776.5 549,-776.5 549,-751.5 181,-751.5"/>
<text text-anchor="start" x="186" y="-760.3" font-family="Arial" font-size="14.00">status : invited | active | disabled</text>
<polygon fill="none" stroke="black" points="181,-726.5 181,-751.5 549,-751.5 549,-726.5 181,-726.5"/>
<text text-anchor="start" x="186" y="-735.3" font-family="Arial" font-size="14.00">token_version (session revoke lever)</text>
<polygon fill="none" stroke="black" points="181,-701.5 181,-726.5 549,-726.5 549,-701.5 181,-701.5"/>
<text text-anchor="start" x="186" y="-710.3" font-family="Arial" font-size="14.00">metadata jsonb (non&#45;auth extensibility)</text>
<polygon fill="none" stroke="black" points="181,-676.5 181,-701.5 549,-701.5 549,-676.5 181,-676.5"/>
<text text-anchor="start" x="186" y="-686.3" font-family="Arial" font-weight="bold" font-size="14.00">FK</text>
<text text-anchor="start" x="205" y="-686.3" font-family="Arial" font-size="14.00"> invited_by → users; onboarded_at</text>
<polygon fill="none" stroke="black" points="181,-651.5 181,-676.5 549,-676.5 549,-651.5 181,-651.5"/>
<text text-anchor="start" x="186" y="-660.3" font-family="Arial" font-size="14.00">created_at, updated_at (trigger)</text>
<polygon fill="none" stroke="black" points="181,-626.5 181,-651.5 549,-651.5 549,-626.5 181,-626.5"/>
<text text-anchor="start" x="186" y="-636.3" font-family="Arial" font-weight="bold" font-size="14.00">FK</text>
<text text-anchor="start" x="205" y="-636.3" font-family="Arial" font-size="14.00"> org_id; designation, role_description</text>
<polygon fill="none" stroke="black" points="181,-601.5 181,-626.5 549,-626.5 549,-601.5 181,-601.5"/>
<text text-anchor="start" x="186" y="-610.3" font-family="Arial" font-size="14.00">name; sign_in_method : google | microsoft | password | sso</text>
<polygon fill="none" stroke="black" points="181,-576.5 181,-601.5 549,-601.5 549,-576.5 181,-576.5"/>
<text text-anchor="start" x="186" y="-585.3" font-family="Arial" font-size="14.00">last_active; password_hash (scrypt; null = no password)</text>
</g>
<!-- users&#45;&gt;projectstate -->
<g id="edge16" class="edge">
<title>users:t&#45;&gt;projectstate:t</title>
<path fill="none" stroke="#64748b" stroke-dasharray="5,2" d="M550,-914.5C586.43,-914.5 562.1,-786.57 575,-752.5 609.54,-661.26 614.45,-580.06 706.99,-575.69"/>
<polygon fill="#64748b" stroke="#64748b" points="707.07,-578.48 715,-575.5 706.94,-572.89 707.07,-578.48"/>
<text text-anchor="start" x="575" y="-755.3" font-family="Times,serif" font-size="9.00">owner (in JSON)</text>
</g>
<!-- users&#45;&gt;organizations -->
<g id="edge13" class="edge">
<title>users:t&#45;&gt;organizations:t</title>
<path fill="none" stroke="#334155" d="M550,-914.5C603.58,-914.5 619.01,-914.5 668.72,-914.5"/>
<polygon fill="#334155" stroke="#334155" points="669,-917.3 677,-914.5 669,-911.7 669,-917.3"/>
<text text-anchor="start" x="598.5" y="-917.3" font-family="Times,serif" font-size="9.00">org_id</text>
</g>
<!-- users&#45;&gt;roles -->
<g id="edge10" class="edge">
<title>users:t&#45;&gt;roles:t</title>
<path fill="none" stroke="#334155" d="M550,-914.5C556.31,-914.5 660.24,-745.8 686.37,-711.53"/>
<polygon fill="#334155" stroke="#334155" points="688.59,-713.26 692,-705.5 684.49,-709.44 688.59,-713.26"/>
<text text-anchor="start" x="597.5" y="-881.3" font-family="Times,serif" font-size="9.00">role_id</text>
</g>
<!-- users&#45;&gt;users -->
<g id="edge12" class="edge">
<title>users:t&#45;&gt;users:t</title>
<path fill="none" stroke="#64748b" stroke-dasharray="5,2" d="M180.78,-921.22C108.89,-921.54 49,-919.3 49,-914.5 49,-909.89 104.31,-907.64 172.41,-907.75"/>
<polygon fill="#64748b" stroke="#64748b" points="172.77,-910.56 180.78,-907.78 172.79,-904.96 172.77,-910.56"/>
<text text-anchor="start" x="0" y="-749.3" font-family="Times,serif" font-size="9.00">invited_by</text>
</g>
<!-- blobs -->
<g id="node14" class="node">
<title>blobs</title>
<polygon fill="white" stroke="transparent" points="698.5,-278.5 698.5,-428.5 895.5,-428.5 895.5,-278.5 698.5,-278.5"/>
<polygon fill="#ecfdf5" stroke="transparent" points="699,-403.5 699,-428.5 896,-428.5 896,-403.5 699,-403.5"/>
<polygon fill="none" stroke="black" points="699,-403.5 699,-428.5 896,-428.5 896,-403.5 699,-403.5"/>
<text text-anchor="start" x="779" y="-413.3" font-family="Arial" font-weight="bold" font-size="14.00">blobs</text>
<polygon fill="none" stroke="black" points="699,-378.5 699,-403.5 896,-403.5 896,-378.5 699,-378.5"/>
<text text-anchor="start" x="704" y="-388.3" font-family="Arial" font-weight="bold" font-size="14.00">PK</text>
<text text-anchor="start" x="723" y="-388.3" font-family="Arial" font-size="14.00"> id</text>
<polygon fill="none" stroke="black" points="699,-353.5 699,-378.5 896,-378.5 896,-353.5 699,-353.5"/>
<text text-anchor="start" x="704" y="-362.3" font-family="Arial" font-size="14.00">scope : project | org, scope_id</text>
<polygon fill="none" stroke="black" points="699,-328.5 699,-353.5 896,-353.5 896,-328.5 699,-328.5"/>
<text text-anchor="start" x="704" y="-337.3" font-family="Arial" font-size="14.00">kind, name, tag</text>
<polygon fill="none" stroke="black" points="699,-303.5 699,-328.5 896,-328.5 896,-303.5 699,-303.5"/>
<text text-anchor="start" x="704" y="-312.3" font-family="Arial" font-size="14.00">storage_key, content_type</text>
<polygon fill="none" stroke="black" points="699,-278.5 699,-303.5 896,-303.5 896,-278.5 699,-278.5"/>
<text text-anchor="start" x="704" y="-287.3" font-family="Arial" font-size="14.00">size_bytes, sha256, created_at</text>
</g>
<!-- blob_uses -->
<g id="node15" class="node">
<title>blob_uses</title>
<polygon fill="white" stroke="transparent" points="296.5,-282.5 296.5,-428.5 433.5,-428.5 433.5,-282.5 296.5,-282.5"/>
<polygon fill="#ecfdf5" stroke="transparent" points="297,-403.5 297,-428.5 434,-428.5 434,-403.5 297,-403.5"/>
<polygon fill="none" stroke="black" points="297,-403.5 297,-428.5 434,-428.5 434,-403.5 297,-403.5"/>
<text text-anchor="start" x="332" y="-413.3" font-family="Arial" font-weight="bold" font-size="14.00">blob_uses</text>
<polygon fill="none" stroke="black" points="297,-378.5 297,-403.5 434,-403.5 434,-378.5 297,-378.5"/>
<text text-anchor="start" x="302" y="-388.3" font-family="Arial" font-weight="bold" font-size="14.00">PK</text>
<text text-anchor="start" x="321" y="-388.3" font-family="Arial" font-size="14.00"> id</text>
<polygon fill="none" stroke="black" points="297,-353.5 297,-378.5 434,-378.5 434,-353.5 297,-353.5"/>
<text text-anchor="start" x="302" y="-363.3" font-family="Arial" font-weight="bold" font-size="14.00">FK</text>
<text text-anchor="start" x="321" y="-363.3" font-family="Arial" font-size="14.00"> blob_id</text>
<polygon fill="none" stroke="black" points="297,-328.5 297,-353.5 434,-353.5 434,-328.5 297,-328.5"/>
<text text-anchor="start" x="302" y="-338.3" font-family="Arial" font-weight="bold" font-size="14.00">FK</text>
<text text-anchor="start" x="321" y="-338.3" font-family="Arial" font-size="14.00"> project_id</text>
<polygon fill="none" stroke="black" points="297,-303.5 297,-328.5 434,-328.5 434,-303.5 297,-303.5"/>
<text text-anchor="start" x="302" y="-312.3" font-family="Arial" font-size="14.00">created_at</text>
<polygon fill="none" stroke="black" points="297,-282.5 297,-303.5 434,-303.5 434,-282.5 297,-282.5"/>
<text text-anchor="start" x="302" y="-290.5" font-family="Arial" font-size="10.00" fill="#64748b">org KB doc used by a project</text>
</g>
<!-- blob_uses&#45;&gt;projectstate -->
<g id="edge15" class="edge">
<title>blob_uses:t&#45;&gt;projectstate:t</title>
<path fill="none" stroke="#64748b" stroke-dasharray="5,2" d="M435,-416.5C490.35,-416.5 506.58,-418.66 557,-441.5 605.26,-463.36 611.93,-478.85 652,-513.5 679.51,-537.29 676.41,-570.17 706.97,-574.92"/>
<polygon fill="#64748b" stroke="#64748b" points="706.82,-577.72 715,-575.5 707.22,-572.13 706.82,-577.72"/>
</g>
<!-- blob_uses&#45;&gt;blobs -->
<g id="edge14" class="edge">
<title>blob_uses:t&#45;&gt;blobs:t</title>
<path fill="none" stroke="#334155" d="M435,-416.5C549.15,-416.5 579.69,-416.5 689.92,-416.5"/>
<polygon fill="#334155" stroke="#334155" points="690,-419.3 698,-416.5 690,-413.7 690,-419.3"/>
</g>
</g>
</svg>
