<?xml version="1.0" encoding="UTF-8" standalone="no"?>
<!DOCTYPE svg PUBLIC "-//W3C//DTD SVG 1.1//EN"
 "http://www.w3.org/Graphics/SVG/1.1/DTD/svg11.dtd">
<!-- Generated by graphviz version 2.43.0 (0)
 -->
<!-- Title: SchemaERD Pages: 1 -->
<svg width="1745pt" height="1217pt"
 viewBox="0.00 0.00 1745.00 1216.50" xmlns="http://www.w3.org/2000/svg" xmlns:xlink="http://www.w3.org/1999/xlink">
<g id="graph0" class="graph" transform="scale(1 1) rotate(0) translate(4 1212.5)">
<title>SchemaERD</title>
<polygon fill="#f8fafc" stroke="transparent" points="-4,4 -4,-1212.5 1741,-1212.5 1741,4 -4,4"/>
<text text-anchor="start" x="754" y="-1187.9" font-family="Arial" font-weight="bold" font-size="22.00">Console Schema ERD</text>
<text text-anchor="start" x="443.5" y="-1173.1" font-family="Arial" font-size="13.00" fill="#475569">One flat </text>
<text text-anchor="start" x="494.5" y="-1173.1" font-family="monospace" font-size="13.00" fill="#475569">public</text>
<text text-anchor="start" x="540.5" y="-1173.1" font-family="Arial" font-size="13.00" fill="#475569"> schema — per&#45;project tables keyed by project_id; global directory tables are single row&#45;sets. (src/software_factory/models.py)</text>
<!-- projectstate -->
<g id="node1" class="node">
<title>projectstate</title>
<polygon fill="white" stroke="transparent" points="981.5,-546.5 981.5,-710.5 1160.5,-710.5 1160.5,-546.5 981.5,-546.5"/>
<polygon fill="#e0f2fe" stroke="transparent" points="982,-685.5 982,-710.5 1161,-710.5 1161,-685.5 982,-685.5"/>
<polygon fill="none" stroke="black" points="982,-685.5 982,-710.5 1161,-710.5 1161,-685.5 982,-685.5"/>
<text text-anchor="start" x="1033" y="-695.3" font-family="Arial" font-weight="bold" font-size="14.00">projectstate</text>
<polygon fill="none" stroke="black" points="982,-660.5 982,-685.5 1161,-685.5 1161,-660.5 982,-660.5"/>
<text text-anchor="start" x="987" y="-670.3" font-family="Arial" font-weight="bold" font-size="14.00">PK</text>
<text text-anchor="start" x="1006" y="-670.3" font-family="Arial" font-size="14.00"> project_id</text>
<polygon fill="none" stroke="black" points="982,-635.5 982,-660.5 1161,-660.5 1161,-635.5 982,-635.5"/>
<text text-anchor="start" x="987" y="-644.3" font-family="Arial" font-size="14.00">data : ProjectState JSON</text>
<polygon fill="none" stroke="black" points="982,-610.5 982,-635.5 1161,-635.5 1161,-610.5 982,-610.5"/>
<text text-anchor="start" x="987" y="-619.3" font-family="Arial" font-size="14.00">name, summary : columns</text>
<polygon fill="none" stroke="black" points="982,-567.5 982,-610.5 1161,-610.5 1161,-567.5 982,-567.5"/>
<text text-anchor="start" x="996" y="-597.5" font-family="Arial" font-size="10.00" fill="#64748b">(JSON holds owner, phase, stage,</text>
<text text-anchor="start" x="987" y="-586.5" font-family="Arial" font-size="10.00" fill="#64748b">models, budget, brief; name+summary</text>
<text text-anchor="start" x="1024" y="-575.5" font-family="Arial" font-size="10.00" fill="#64748b">promoted to columns)</text>
<polygon fill="none" stroke="black" points="982,-546.5 982,-567.5 1161,-567.5 1161,-546.5 982,-546.5"/>
<text text-anchor="start" x="987" y="-554.5" font-family="Arial" font-size="10.00" fill="#64748b">also the project registry</text>
</g>
<!-- phases -->
<g id="node2" class="node">
<title>phases</title>
<polygon fill="white" stroke="transparent" points="1265.5,-1061.5 1265.5,-1161.5 1412.5,-1161.5 1412.5,-1061.5 1265.5,-1061.5"/>
<polygon fill="#f1f5f9" stroke="transparent" points="1266,-1136.5 1266,-1161.5 1413,-1161.5 1413,-1136.5 1266,-1136.5"/>
<polygon fill="none" stroke="black" points="1266,-1136.5 1266,-1161.5 1413,-1161.5 1413,-1136.5 1266,-1136.5"/>
<text text-anchor="start" x="1316" y="-1146.3" font-family="Arial" font-weight="bold" font-size="14.00">phases</text>
<polygon fill="none" stroke="black" points="1266,-1111.5 1266,-1136.5 1413,-1136.5 1413,-1111.5 1266,-1111.5"/>
<text text-anchor="start" x="1271" y="-1121.3" font-family="Arial" font-weight="bold" font-size="14.00">PK</text>
<text text-anchor="start" x="1290" y="-1121.3" font-family="Arial" font-size="14.00"> id</text>
<polygon fill="none" stroke="black" points="1266,-1086.5 1266,-1111.5 1413,-1111.5 1413,-1086.5 1266,-1086.5"/>
<text text-anchor="start" x="1271" y="-1096.3" font-family="Arial" font-weight="bold" font-size="14.00">FK</text>
<text text-anchor="start" x="1290" y="-1096.3" font-family="Arial" font-size="14.00"> project_id</text>
<polygon fill="none" stroke="black" points="1266,-1061.5 1266,-1086.5 1413,-1086.5 1413,-1061.5 1266,-1061.5"/>
<text text-anchor="start" x="1271" y="-1070.3" font-family="Arial" font-size="14.00">name, status, stage, ts</text>
</g>
<!-- projectstate&#45;&gt;phases -->
<g id="edge1" class="edge">
<title>projectstate:t&#45;&gt;phases:t</title>
<path fill="none" stroke="#334155" d="M1162,-698.5C1261.99,-698.5 1167.65,-1125.17 1257.02,-1148.51"/>
<polygon fill="#334155" stroke="#334155" points="1256.72,-1151.29 1265,-1149.5 1257.41,-1145.73 1256.72,-1151.29"/>
</g>
<!-- artifacts -->
<g id="node3" class="node">
<title>artifacts</title>
<polygon fill="white" stroke="transparent" points="1260.5,-914 1260.5,-1035 1417.5,-1035 1417.5,-914 1260.5,-914"/>
<polygon fill="#f1f5f9" stroke="transparent" points="1261,-1009.5 1261,-1034.5 1418,-1034.5 1418,-1009.5 1261,-1009.5"/>
<polygon fill="none" stroke="black" points="1261,-1009.5 1261,-1034.5 1418,-1034.5 1418,-1009.5 1261,-1009.5"/>
<text text-anchor="start" x="1313" y="-1019.3" font-family="Arial" font-weight="bold" font-size="14.00">artifacts</text>
<polygon fill="none" stroke="black" points="1261,-984.5 1261,-1009.5 1418,-1009.5 1418,-984.5 1261,-984.5"/>
<text text-anchor="start" x="1266" y="-994.3" font-family="Arial" font-weight="bold" font-size="14.00">PK</text>
<text text-anchor="start" x="1285" y="-994.3" font-family="Arial" font-size="14.00"> id</text>
<polygon fill="none" stroke="black" points="1261,-959.5 1261,-984.5 1418,-984.5 1418,-959.5 1261,-959.5"/>
<text text-anchor="start" x="1266" y="-969.3" font-family="Arial" font-weight="bold" font-size="14.00">FK</text>
<text text-anchor="start" x="1285" y="-969.3" font-family="Arial" font-size="14.00"> project_id</text>
<polygon fill="none" stroke="black" points="1261,-934.5 1261,-959.5 1418,-959.5 1418,-934.5 1261,-934.5"/>
<text text-anchor="start" x="1266" y="-943.3" font-family="Arial" font-size="14.00">title, path, kind, agent, ts</text>
<polygon fill="none" stroke="black" points="1261,-913.5 1261,-934.5 1418,-934.5 1418,-913.5 1261,-913.5"/>
<text text-anchor="start" x="1266" y="-921.5" font-family="Arial" font-size="10.00" fill="#64748b">metadata only; bytes via blobs</text>
</g>
<!-- projectstate&#45;&gt;artifacts -->
<g id="edge2" class="edge">
<title>projectstate:t&#45;&gt;artifacts:t</title>
<path fill="none" stroke="#334155" d="M1162,-698.5C1234.28,-698.5 1188.68,-997.68 1251.75,-1021.06"/>
<polygon fill="#334155" stroke="#334155" points="1251.64,-1023.88 1260,-1022.5 1252.6,-1018.36 1251.64,-1023.88"/>
</g>
<!-- blockers -->
<g id="node4" class="node">
<title>blockers</title>
<polygon fill="white" stroke="transparent" points="1261.5,-787.5 1261.5,-887.5 1416.5,-887.5 1416.5,-787.5 1261.5,-787.5"/>
<polygon fill="#f1f5f9" stroke="transparent" points="1262,-862.5 1262,-887.5 1417,-887.5 1417,-862.5 1262,-862.5"/>
<polygon fill="none" stroke="black" points="1262,-862.5 1262,-887.5 1417,-887.5 1417,-862.5 1262,-862.5"/>
<text text-anchor="start" x="1311.5" y="-872.3" font-family="Arial" font-weight="bold" font-size="14.00">blockers</text>
<polygon fill="none" stroke="black" points="1262,-837.5 1262,-862.5 1417,-862.5 1417,-837.5 1262,-837.5"/>
<text text-anchor="start" x="1267" y="-847.3" font-family="Arial" font-weight="bold" font-size="14.00">PK</text>
<text text-anchor="start" x="1286" y="-847.3" font-family="Arial" font-size="14.00"> id</text>
<polygon fill="none" stroke="black" points="1262,-812.5 1262,-837.5 1417,-837.5 1417,-812.5 1262,-812.5"/>
<text text-anchor="start" x="1267" y="-822.3" font-family="Arial" font-weight="bold" font-size="14.00">FK</text>
<text text-anchor="start" x="1286" y="-822.3" font-family="Arial" font-size="14.00"> project_id</text>
<polygon fill="none" stroke="black" points="1262,-787.5 1262,-812.5 1417,-812.5 1417,-787.5 1262,-787.5"/>
<text text-anchor="start" x="1267" y="-796.3" font-family="Arial" font-size="14.00">what, blocks, cleared, ts</text>
</g>
<!-- projectstate&#45;&gt;blockers -->
<g id="edge3" class="edge">
<title>projectstate:t&#45;&gt;blockers:t</title>
<path fill="none" stroke="#334155" d="M1162,-698.5C1249.14,-698.5 1176.07,-863.94 1252.58,-874.93"/>
<polygon fill="#334155" stroke="#334155" points="1252.83,-877.75 1261,-875.5 1253.21,-872.16 1252.83,-877.75"/>
</g>
<!-- gates -->
<g id="node5" class="node">
<title>gates</title>
<polygon fill="white" stroke="transparent" points="1267.5,-686 1267.5,-761 1410.5,-761 1410.5,-686 1267.5,-686"/>
<polygon fill="#f1f5f9" stroke="transparent" points="1268,-735.5 1268,-760.5 1411,-760.5 1411,-735.5 1268,-735.5"/>
<polygon fill="none" stroke="black" points="1268,-735.5 1268,-760.5 1411,-760.5 1411,-735.5 1268,-735.5"/>
<text text-anchor="start" x="1321.5" y="-745.3" font-family="Arial" font-weight="bold" font-size="14.00">gates</text>
<polygon fill="none" stroke="black" points="1268,-710.5 1268,-735.5 1411,-735.5 1411,-710.5 1268,-710.5"/>
<text text-anchor="start" x="1273" y="-720.3" font-family="Arial" font-weight="bold" font-size="14.00">PK</text>
<text text-anchor="start" x="1292" y="-720.3" font-family="Arial" font-size="14.00"> (project_id, name)</text>
<polygon fill="none" stroke="black" points="1268,-685.5 1268,-710.5 1411,-710.5 1411,-685.5 1268,-685.5"/>
<text text-anchor="start" x="1273" y="-694.3" font-family="Arial" font-size="14.00">status, ts</text>
</g>
<!-- projectstate&#45;&gt;gates -->
<g id="edge4" class="edge">
<title>projectstate:t&#45;&gt;gates:t</title>
<path fill="none" stroke="#334155" d="M1162,-698.5C1210.86,-698.5 1214.98,-743.18 1258.95,-748.07"/>
<polygon fill="#334155" stroke="#334155" points="1258.86,-750.87 1267,-748.5 1259.16,-745.27 1258.86,-750.87"/>
</g>
<!-- verifications -->
<g id="node6" class="node">
<title>verifications</title>
<polygon fill="white" stroke="transparent" points="1271.5,-539 1271.5,-660 1406.5,-660 1406.5,-539 1271.5,-539"/>
<polygon fill="#f1f5f9" stroke="transparent" points="1272,-634.5 1272,-659.5 1407,-659.5 1407,-634.5 1272,-634.5"/>
<polygon fill="none" stroke="black" points="1272,-634.5 1272,-659.5 1407,-659.5 1407,-634.5 1272,-634.5"/>
<text text-anchor="start" x="1299.5" y="-644.3" font-family="Arial" font-weight="bold" font-size="14.00">verifications</text>
<polygon fill="none" stroke="black" points="1272,-609.5 1272,-634.5 1407,-634.5 1407,-609.5 1272,-609.5"/>
<text text-anchor="start" x="1277" y="-619.3" font-family="Arial" font-weight="bold" font-size="14.00">PK</text>
<text text-anchor="start" x="1296" y="-619.3" font-family="Arial" font-size="14.00"> id</text>
<polygon fill="none" stroke="black" points="1272,-584.5 1272,-609.5 1407,-609.5 1407,-584.5 1272,-584.5"/>
<text text-anchor="start" x="1277" y="-594.3" font-family="Arial" font-weight="bold" font-size="14.00">FK</text>
<text text-anchor="start" x="1296" y="-594.3" font-family="Arial" font-size="14.00"> project_id</text>
<polygon fill="none" stroke="black" points="1272,-559.5 1272,-584.5 1407,-584.5 1407,-559.5 1272,-559.5"/>
<text text-anchor="start" x="1277" y="-568.3" font-family="Arial" font-size="14.00">url, passed, result, ts</text>
<polygon fill="none" stroke="black" points="1272,-538.5 1272,-559.5 1407,-559.5 1407,-538.5 1272,-538.5"/>
<text text-anchor="start" x="1277" y="-546.5" font-family="Arial" font-size="10.00" fill="#64748b">passed = Stage 3 done gate</text>
</g>
<!-- projectstate&#45;&gt;verifications -->
<g id="edge5" class="edge">
<title>projectstate:t&#45;&gt;verifications:t</title>
<path fill="none" stroke="#334155" d="M1162,-698.5C1212.66,-698.5 1217.16,-652.74 1262.95,-647.91"/>
<polygon fill="#334155" stroke="#334155" points="1263.15,-650.7 1271,-647.5 1262.87,-645.11 1263.15,-650.7"/>
</g>
<!-- deployments -->
<g id="node7" class="node">
<title>deployments</title>
<polygon fill="white" stroke="transparent" points="1265,-366.5 1265,-512.5 1413,-512.5 1413,-366.5 1265,-366.5"/>
<polygon fill="#f1f5f9" stroke="transparent" points="1265,-487.5 1265,-512.5 1413,-512.5 1413,-487.5 1265,-487.5"/>
<polygon fill="none" stroke="black" points="1265,-487.5 1265,-512.5 1413,-512.5 1413,-487.5 1265,-487.5"/>
<text text-anchor="start" x="1296.5" y="-497.3" font-family="Arial" font-weight="bold" font-size="14.00">deployments</text>
<polygon fill="none" stroke="black" points="1265,-462.5 1265,-487.5 1413,-487.5 1413,-462.5 1265,-462.5"/>
<text text-anchor="start" x="1270" y="-472.3" font-family="Arial" font-weight="bold" font-size="14.00">PK</text>
<text text-anchor="start" x="1289" y="-472.3" font-family="Arial" font-size="14.00"> id</text>
<polygon fill="none" stroke="black" points="1265,-437.5 1265,-462.5 1413,-462.5 1413,-437.5 1265,-437.5"/>
<text text-anchor="start" x="1270" y="-447.3" font-family="Arial" font-weight="bold" font-size="14.00">FK</text>
<text text-anchor="start" x="1289" y="-447.3" font-family="Arial" font-size="14.00"> project_id</text>
<polygon fill="none" stroke="black" points="1265,-412.5 1265,-437.5 1413,-437.5 1413,-412.5 1265,-412.5"/>
<text text-anchor="start" x="1270" y="-421.3" font-family="Arial" font-size="14.00">app, service_name, url</text>
<polygon fill="none" stroke="black" points="1265,-387.5 1265,-412.5 1413,-412.5 1413,-387.5 1265,-387.5"/>
<text text-anchor="start" x="1270" y="-396.3" font-family="Arial" font-size="14.00">status, verified, ts</text>
<polygon fill="none" stroke="black" points="1265,-366.5 1265,-387.5 1413,-387.5 1413,-366.5 1265,-366.5"/>
<text text-anchor="start" x="1270" y="-374.5" font-family="Arial" font-size="10.00" fill="#64748b">1..N deliverables per project</text>
</g>
<!-- projectstate&#45;&gt;deployments -->
<g id="edge6" class="edge">
<title>projectstate:t&#45;&gt;deployments:t</title>
<path fill="none" stroke="#334155" d="M1162,-698.5C1258.09,-698.5 1170.47,-511.93 1255.79,-501"/>
<polygon fill="#334155" stroke="#334155" points="1256.19,-503.78 1264,-500.5 1255.84,-498.19 1256.19,-503.78"/>
</g>
<!-- tickets -->
<g id="node8" class="node">
<title>tickets</title>
<polygon fill="white" stroke="transparent" points="1243,-127 1243,-302 1435,-302 1435,-127 1243,-127"/>
<polygon fill="#f1f5f9" stroke="transparent" points="1243,-276.5 1243,-301.5 1435,-301.5 1435,-276.5 1243,-276.5"/>
<polygon fill="none" stroke="black" points="1243,-276.5 1243,-301.5 1435,-301.5 1435,-276.5 1243,-276.5"/>
<text text-anchor="start" x="1317.5" y="-286.3" font-family="Arial" font-weight="bold" font-size="14.00">tickets</text>
<polygon fill="none" stroke="black" points="1243,-251.5 1243,-276.5 1435,-276.5 1435,-251.5 1243,-251.5"/>
<text text-anchor="start" x="1248" y="-261.3" font-family="Arial" font-weight="bold" font-size="14.00">PK</text>
<text text-anchor="start" x="1267" y="-261.3" font-family="Arial" font-size="14.00"> id</text>
<polygon fill="none" stroke="black" points="1243,-226.5 1243,-251.5 1435,-251.5 1435,-226.5 1243,-226.5"/>
<text text-anchor="start" x="1248" y="-236.3" font-family="Arial" font-weight="bold" font-size="14.00">FK</text>
<text text-anchor="start" x="1267" y="-236.3" font-family="Arial" font-size="14.00"> project_id</text>
<polygon fill="none" stroke="black" points="1243,-201.5 1243,-226.5 1435,-226.5 1435,-201.5 1243,-201.5"/>
<text text-anchor="start" x="1248" y="-210.3" font-family="Arial" font-size="14.00">title, acceptance, dod, wave</text>
<polygon fill="none" stroke="black" points="1243,-176.5 1243,-201.5 1435,-201.5 1435,-176.5 1243,-176.5"/>
<text text-anchor="start" x="1248" y="-185.3" font-family="Arial" font-size="14.00">status (6&#45;state), agent, app</text>
<polygon fill="none" stroke="black" points="1243,-151.5 1243,-176.5 1435,-176.5 1435,-151.5 1243,-151.5"/>
<text text-anchor="start" x="1248" y="-160.3" font-family="Arial" font-size="14.00">provenance, provenance_type</text>
<polygon fill="none" stroke="black" points="1243,-126.5 1243,-151.5 1435,-151.5 1435,-126.5 1243,-126.5"/>
<text text-anchor="start" x="1248" y="-135.3" font-family="Arial" font-size="14.00">diff_lines, description</text>
</g>
<!-- projectstate&#45;&gt;tickets -->
<g id="edge7" class="edge">
<title>projectstate:t&#45;&gt;tickets:t</title>
<path fill="none" stroke="#334155" d="M1162,-698.5C1251.72,-698.5 1155.77,-314.66 1233.89,-290.67"/>
<polygon fill="#334155" stroke="#334155" points="1234.48,-293.42 1242,-289.5 1233.68,-287.87 1234.48,-293.42"/>
</g>
<!-- agents -->
<g id="node9" class="node">
<title>agents</title>
<polygon fill="white" stroke="transparent" points="1527,-173.5 1527,-323.5 1729,-323.5 1729,-173.5 1527,-173.5"/>
<polygon fill="#f1f5f9" stroke="transparent" points="1527,-298.5 1527,-323.5 1729,-323.5 1729,-298.5 1527,-298.5"/>
<polygon fill="none" stroke="black" points="1527,-298.5 1527,-323.5 1729,-323.5 1729,-298.5 1527,-298.5"/>
<text text-anchor="start" x="1606" y="-308.3" font-family="Arial" font-weight="bold" font-size="14.00">agents</text>
<polygon fill="none" stroke="black" points="1527,-273.5 1527,-298.5 1729,-298.5 1729,-273.5 1527,-273.5"/>
<text text-anchor="start" x="1532" y="-283.3" font-family="Arial" font-weight="bold" font-size="14.00">PK</text>
<text text-anchor="start" x="1551" y="-283.3" font-family="Arial" font-size="14.00"> (agent_id, project_id)</text>
<polygon fill="none" stroke="black" points="1527,-248.5 1527,-273.5 1729,-273.5 1729,-248.5 1527,-248.5"/>
<text text-anchor="start" x="1532" y="-257.3" font-family="Arial" font-size="14.00">ticket_id, role, model, phase</text>
<polygon fill="none" stroke="black" points="1527,-223.5 1527,-248.5 1729,-248.5 1729,-223.5 1527,-223.5"/>
<text text-anchor="start" x="1532" y="-232.3" font-family="Arial" font-size="14.00">status, outcome, cost_usd</text>
<polygon fill="none" stroke="black" points="1527,-198.5 1527,-223.5 1729,-223.5 1729,-198.5 1527,-198.5"/>
<text text-anchor="start" x="1532" y="-207.3" font-family="Arial" font-size="14.00">*_tokens, provenance, diff_lines</text>
<polygon fill="none" stroke="black" points="1527,-173.5 1527,-198.5 1729,-198.5 1729,-173.5 1527,-173.5"/>
<text text-anchor="start" x="1532" y="-182.3" font-family="Arial" font-size="14.00">started_at, ended_at</text>
</g>
<!-- projectstate&#45;&gt;agents -->
<g id="edge8" class="edge">
<title>projectstate:t&#45;&gt;agents:t</title>
<path fill="none" stroke="#334155" d="M1162,-698.5C1240.36,-698.5 1177.44,-406.67 1235,-353.5 1278.75,-313.08 1443.07,-334.34 1501,-320.5 1509.26,-318.53 1512.46,-314.74 1517.99,-312.77"/>
<polygon fill="#334155" stroke="#334155" points="1518.54,-315.52 1526,-311.5 1517.66,-309.98 1518.54,-315.52"/>
</g>
<!-- tickets&#45;&gt;agents -->
<g id="edge9" class="edge">
<title>tickets:t&#45;&gt;agents:t</title>
<path fill="none" stroke="#64748b" stroke-dasharray="5,2" d="M1436,-289.5C1474.28,-289.5 1483.58,-308.52 1517.79,-311.19"/>
<polygon fill="#64748b" stroke="#64748b" points="1517.9,-314 1526,-311.5 1518.11,-308.4 1517.9,-314"/>
<text text-anchor="start" x="1461" y="-311.3" font-family="Times,serif" font-size="9.00">ticket_id</text>
</g>
<!-- organizations -->
<g id="node10" class="node">
<title>organizations</title>
<polygon fill="white" stroke="transparent" points="952,-819 952,-994 1190,-994 1190,-819 952,-819"/>
<polygon fill="#fef9c3" stroke="transparent" points="952,-968.5 952,-993.5 1190,-993.5 1190,-968.5 952,-968.5"/>
<polygon fill="none" stroke="black" points="952,-968.5 952,-993.5 1190,-993.5 1190,-968.5 952,-968.5"/>
<text text-anchor="start" x="1027" y="-978.3" font-family="Arial" font-weight="bold" font-size="14.00">organizations</text>
<polygon fill="none" stroke="black" points="952,-943.5 952,-968.5 1190,-968.5 1190,-943.5 952,-943.5"/>
<text text-anchor="start" x="957" y="-953.3" font-family="Arial" font-weight="bold" font-size="14.00">PK</text>
<text text-anchor="start" x="976" y="-953.3" font-family="Arial" font-size="14.00"> id</text>
<polygon fill="none" stroke="black" points="952,-918.5 952,-943.5 1190,-943.5 1190,-918.5 952,-918.5"/>
<text text-anchor="start" x="957" y="-927.3" font-family="Arial" font-size="14.00">name, industry, sub_focus</text>
<polygon fill="none" stroke="black" points="952,-893.5 952,-918.5 1190,-918.5 1190,-893.5 952,-893.5"/>
<text text-anchor="start" x="957" y="-902.3" font-family="Arial" font-size="14.00">headcount, revenue (band text)</text>
<polygon fill="none" stroke="black" points="952,-868.5 952,-893.5 1190,-893.5 1190,-868.5 952,-868.5"/>
<text text-anchor="start" x="957" y="-877.3" font-family="Arial" font-size="14.00">location, website, connected_systems</text>
<polygon fill="none" stroke="black" points="952,-843.5 952,-868.5 1190,-868.5 1190,-843.5 952,-843.5"/>
<text text-anchor="start" x="957" y="-852.3" font-family="Arial" font-size="14.00">plan, monthly_budget_cap</text>
<polygon fill="none" stroke="black" points="952,-818.5 952,-843.5 1190,-843.5 1190,-818.5 952,-818.5"/>
<text text-anchor="start" x="957" y="-827.3" font-family="Arial" font-size="14.00">created_at, created_by</text>
</g>
<!-- roles -->
<g id="node11" class="node">
<title>roles</title>
<polygon fill="white" stroke="transparent" points="966.5,-420.5 966.5,-520.5 1175.5,-520.5 1175.5,-420.5 966.5,-420.5"/>
<polygon fill="#fde68a" stroke="transparent" points="967,-495.5 967,-520.5 1176,-520.5 1176,-495.5 967,-495.5"/>
<polygon fill="none" stroke="black" points="967,-495.5 967,-520.5 1176,-520.5 1176,-495.5 967,-495.5"/>
<text text-anchor="start" x="1055" y="-505.3" font-family="Arial" font-weight="bold" font-size="14.00">roles</text>
<polygon fill="none" stroke="black" points="967,-470.5 967,-495.5 1176,-495.5 1176,-470.5 967,-470.5"/>
<text text-anchor="start" x="972" y="-480.3" font-family="Arial" font-weight="bold" font-size="14.00">PK</text>
<text text-anchor="start" x="991" y="-480.3" font-family="Arial" font-size="14.00"> id (uuid)</text>
<polygon fill="none" stroke="black" points="967,-445.5 967,-470.5 1176,-470.5 1176,-445.5 967,-445.5"/>
<text text-anchor="start" x="972" y="-454.3" font-family="Arial" font-size="14.00">name : admin | member (unique)</text>
<polygon fill="none" stroke="black" points="967,-420.5 967,-445.5 1176,-445.5 1176,-420.5 967,-420.5"/>
<text text-anchor="start" x="972" y="-429.3" font-family="Arial" font-size="14.00">description, created_at</text>
</g>
<!-- role_permissions -->
<g id="node12" class="node">
<title>role_permissions</title>
<polygon fill="white" stroke="transparent" points="545,-424.5 545,-520.5 733,-520.5 733,-424.5 545,-424.5"/>
<polygon fill="#fde68a" stroke="transparent" points="545,-495.5 545,-520.5 733,-520.5 733,-495.5 545,-495.5"/>
<polygon fill="none" stroke="black" points="545,-495.5 545,-520.5 733,-520.5 733,-495.5 545,-495.5"/>
<text text-anchor="start" x="582.5" y="-505.3" font-family="Arial" font-weight="bold" font-size="14.00">role_permissions</text>
<polygon fill="none" stroke="black" points="545,-470.5 545,-495.5 733,-495.5 733,-470.5 545,-470.5"/>
<text text-anchor="start" x="550" y="-480.3" font-family="Arial" font-weight="bold" font-size="14.00">PK</text>
<text text-anchor="start" x="569" y="-480.3" font-family="Arial" font-size="14.00"> (role_id, permission)</text>
<polygon fill="none" stroke="black" points="545,-445.5 545,-470.5 733,-470.5 733,-445.5 545,-445.5"/>
<text text-anchor="start" x="550" y="-455.3" font-family="Arial" font-weight="bold" font-size="14.00">FK</text>
<text text-anchor="start" x="569" y="-455.3" font-family="Arial" font-size="14.00"> role_id → roles (cascade)</text>
<polygon fill="none" stroke="black" points="545,-424.5 545,-445.5 733,-445.5 733,-424.5 545,-424.5"/>
<text text-anchor="start" x="550" y="-432.5" font-family="Arial" font-size="10.00" fill="#64748b">e.g. &#39;projects.delete&#39;</text>
</g>
<!-- role_permissions&#45;&gt;roles -->
<g id="edge11" class="edge">
<title>role_permissions:t&#45;&gt;roles:t</title>
<path fill="none" stroke="#334155" d="M734,-508.5C834.29,-508.5 861.42,-508.5 957.71,-508.5"/>
<polygon fill="#334155" stroke="#334155" points="958,-511.3 966,-508.5 958,-505.7 958,-511.3"/>
<text text-anchor="start" x="871.5" y="-511.3" font-family="Times,serif" font-size="9.00">role_id</text>
</g>
<!-- users -->
<g id="node13" class="node">
<title>users</title>
<polygon fill="white" stroke="transparent" points="455,-643.5 455,-993.5 823,-993.5 823,-643.5 455,-643.5"/>
<polygon fill="#fef9c3" stroke="transparent" points="455,-968.5 455,-993.5 823,-993.5 823,-968.5 455,-968.5"/>
<polygon fill="none" stroke="black" points="455,-968.5 455,-993.5 823,-993.5 823,-968.5 455,-968.5"/>
<text text-anchor="start" x="620.5" y="-978.3" font-family="Arial" font-weight="bold" font-size="14.00">users</text>
<polygon fill="none" stroke="black" points="455,-943.5 455,-968.5 823,-968.5 823,-943.5 455,-943.5"/>
<text text-anchor="start" x="460" y="-953.3" font-family="Arial" font-weight="bold" font-size="14.00">PK</text>
<text text-anchor="start" x="479" y="-953.3" font-family="Arial" font-size="14.00"> id (uuid)</text>
<polygon fill="none" stroke="black" points="455,-918.5 455,-943.5 823,-943.5 823,-918.5 455,-918.5"/>
<text text-anchor="start" x="460" y="-927.3" font-family="Arial" font-size="14.00">google_sub (unique, null until 1st sign&#45;in)</text>
<polygon fill="none" stroke="black" points="455,-893.5 455,-918.5 823,-918.5 823,-893.5 455,-893.5"/>
<text text-anchor="start" x="460" y="-902.3" font-family="Arial" font-size="14.00">email (unique) — allowlist match key</text>
<polygon fill="none" stroke="black" points="455,-868.5 455,-893.5 823,-893.5 823,-868.5 455,-868.5"/>
<text text-anchor="start" x="460" y="-878.3" font-family="Arial" font-weight="bold" font-size="14.00">FK</text>
<text text-anchor="start" x="479" y="-878.3" font-family="Arial" font-size="14.00"> role_id → roles</text>
<polygon fill="none" stroke="black" points="455,-843.5 455,-868.5 823,-868.5 823,-843.5 455,-843.5"/>
<text text-anchor="start" x="460" y="-852.3" font-family="Arial" font-size="14.00">is_internal (Tenexity staff flag)</text>
<polygon fill="none" stroke="black" points="455,-818.5 455,-843.5 823,-843.5 823,-818.5 455,-818.5"/>
<text text-anchor="start" x="460" y="-827.3" font-family="Arial" font-size="14.00">status : invited | active | disabled</text>
<polygon fill="none" stroke="black" points="455,-793.5 455,-818.5 823,-818.5 823,-793.5 455,-793.5"/>
<text text-anchor="start" x="460" y="-802.3" font-family="Arial" font-size="14.00">token_version (session revoke lever)</text>
<polygon fill="none" stroke="black" points="455,-768.5 455,-793.5 823,-793.5 823,-768.5 455,-768.5"/>
<text text-anchor="start" x="460" y="-777.3" font-family="Arial" font-size="14.00">metadata jsonb (non&#45;auth extensibility)</text>
<polygon fill="none" stroke="black" points="455,-743.5 455,-768.5 823,-768.5 823,-743.5 455,-743.5"/>
<text text-anchor="start" x="460" y="-753.3" font-family="Arial" font-weight="bold" font-size="14.00">FK</text>
<text text-anchor="start" x="479" y="-753.3" font-family="Arial" font-size="14.00"> invited_by → users; onboarded_at</text>
<polygon fill="none" stroke="black" points="455,-718.5 455,-743.5 823,-743.5 823,-718.5 455,-718.5"/>
<text text-anchor="start" x="460" y="-727.3" font-family="Arial" font-size="14.00">created_at, updated_at (trigger)</text>
<polygon fill="none" stroke="black" points="455,-693.5 455,-718.5 823,-718.5 823,-693.5 455,-693.5"/>
<text text-anchor="start" x="460" y="-703.3" font-family="Arial" font-weight="bold" font-size="14.00">FK</text>
<text text-anchor="start" x="479" y="-703.3" font-family="Arial" font-size="14.00"> org_id; designation, role_description</text>
<polygon fill="none" stroke="black" points="455,-668.5 455,-693.5 823,-693.5 823,-668.5 455,-668.5"/>
<text text-anchor="start" x="460" y="-677.3" font-family="Arial" font-size="14.00">name; sign_in_method : google | microsoft | password | sso</text>
<polygon fill="none" stroke="black" points="455,-643.5 455,-668.5 823,-668.5 823,-643.5 455,-643.5"/>
<text text-anchor="start" x="460" y="-652.3" font-family="Arial" font-size="14.00">last_active; password_hash (scrypt; null = no password)</text>
</g>
<!-- users&#45;&gt;projectstate -->
<g id="edge16" class="edge">
<title>users:t&#45;&gt;projectstate:t</title>
<path fill="none" stroke="#64748b" stroke-dasharray="5,2" d="M824,-981.5C832.2,-981.5 948.58,-746.06 975.79,-704.67"/>
<polygon fill="#64748b" stroke="#64748b" points="977.98,-706.42 981,-698.5 973.7,-702.81 977.98,-706.42"/>
<text text-anchor="start" x="849" y="-942.3" font-family="Times,serif" font-size="9.00">owner (in JSON)</text>
</g>
<!-- users&#45;&gt;organizations -->
<g id="edge13" class="edge">
<title>users:t&#45;&gt;organizations:t</title>
<path fill="none" stroke="#334155" d="M824,-981.5C877.58,-981.5 893.01,-981.5 942.72,-981.5"/>
<polygon fill="#334155" stroke="#334155" points="943,-984.3 951,-981.5 943,-978.7 943,-984.3"/>
<text text-anchor="start" x="872.5" y="-984.3" font-family="Times,serif" font-size="9.00">org_id</text>
</g>
<!-- users&#45;&gt;roles -->
<g id="edge10" class="edge">
<title>users:t&#45;&gt;roles:t</title>
<path fill="none" stroke="#334155" d="M824,-981.5C846.17,-981.5 843.63,-805.02 849,-783.5 864.41,-721.7 896.79,-525.53 957.99,-509.54"/>
<polygon fill="#334155" stroke="#334155" points="958.43,-512.3 966,-508.5 957.71,-506.75 958.43,-512.3"/>
<text text-anchor="start" x="871.5" y="-786.3" font-family="Times,serif" font-size="9.00">role_id</text>
</g>
<!-- users&#45;&gt;users -->
<g id="edge12" class="edge">
<title>users:t&#45;&gt;users:t</title>
<path fill="none" stroke="#64748b" stroke-dasharray="5,2" d="M454.78,-988.22C382.89,-988.54 323,-986.3 323,-981.5 323,-976.89 378.31,-974.64 446.41,-974.75"/>
<polygon fill="#64748b" stroke="#64748b" points="446.77,-977.56 454.78,-974.78 446.79,-971.96 446.77,-977.56"/>
<text text-anchor="start" x="274" y="-816.3" font-family="Times,serif" font-size="9.00">invited_by</text>
</g>
<!-- blobs -->
<g id="node14" class="node">
<title>blobs</title>
<polygon fill="white" stroke="transparent" points="478,-221 478,-396 800,-396 800,-221 478,-221"/>
<polygon fill="#ecfdf5" stroke="transparent" points="478,-370.5 478,-395.5 800,-395.5 800,-370.5 478,-370.5"/>
<polygon fill="none" stroke="black" points="478,-370.5 478,-395.5 800,-395.5 800,-370.5 478,-370.5"/>
<text text-anchor="start" x="620.5" y="-380.3" font-family="Arial" font-weight="bold" font-size="14.00">blobs</text>
<polygon fill="none" stroke="black" points="478,-345.5 478,-370.5 800,-370.5 800,-345.5 478,-345.5"/>
<text text-anchor="start" x="483" y="-355.3" font-family="Arial" font-weight="bold" font-size="14.00">PK</text>
<text text-anchor="start" x="502" y="-355.3" font-family="Arial" font-size="14.00"> id</text>
<polygon fill="none" stroke="black" points="478,-320.5 478,-345.5 800,-345.5 800,-320.5 478,-320.5"/>
<text text-anchor="start" x="483" y="-329.3" font-family="Arial" font-size="14.00">scope : project | org, scope_id</text>
<polygon fill="none" stroke="black" points="478,-295.5 478,-320.5 800,-320.5 800,-295.5 478,-295.5"/>
<text text-anchor="start" x="483" y="-304.3" font-family="Arial" font-size="14.00">kind, name, tag</text>
<polygon fill="none" stroke="black" points="478,-270.5 478,-295.5 800,-295.5 800,-270.5 478,-270.5"/>
<text text-anchor="start" x="483" y="-279.3" font-family="Arial" font-size="14.00">storage_key, content_type</text>
<polygon fill="none" stroke="black" points="478,-245.5 478,-270.5 800,-270.5 800,-245.5 478,-245.5"/>
<text text-anchor="start" x="483" y="-254.3" font-family="Arial" font-size="14.00">size_bytes, sha256, created_at</text>
<polygon fill="none" stroke="black" points="478,-220.5 478,-245.5 800,-245.5 800,-220.5 478,-220.5"/>
<text text-anchor="start" x="483" y="-230.3" font-family="Arial" font-weight="bold" font-size="14.00">FK</text>
<text text-anchor="start" x="502" y="-230.3" font-family="Arial" font-size="14.00"> source_blob_id (self); source_page, provenance</text>
</g>
<!-- blobs&#45;&gt;blobs -->
<g id="edge17" class="edge">
<title>blobs:t&#45;&gt;blobs:t</title>
<path fill="none" stroke="#64748b" stroke-dasharray="5,2" d="M477.78,-390.16C406.95,-390.75 346,-388.53 346,-383.5 346,-378.67 402.28,-376.43 469.53,-376.79"/>
<polygon fill="#64748b" stroke="#64748b" points="469.76,-379.59 477.78,-376.84 469.8,-373.99 469.76,-379.59"/>
<text text-anchor="start" x="276" y="-306.3" font-family="Times,serif" font-size="9.00">source_blob_id</text>
</g>
<!-- blob_uses -->
<g id="node15" class="node">
<title>blob_uses</title>
<polygon fill="white" stroke="transparent" points="92.5,-419.5 92.5,-565.5 229.5,-565.5 229.5,-419.5 92.5,-419.5"/>
<polygon fill="#ecfdf5" stroke="transparent" points="93,-540.5 93,-565.5 230,-565.5 230,-540.5 93,-540.5"/>
<polygon fill="none" stroke="black" points="93,-540.5 93,-565.5 230,-565.5 230,-540.5 93,-540.5"/>
<text text-anchor="start" x="128" y="-550.3" font-family="Arial" font-weight="bold" font-size="14.00">blob_uses</text>
<polygon fill="none" stroke="black" points="93,-515.5 93,-540.5 230,-540.5 230,-515.5 93,-515.5"/>
<text text-anchor="start" x="98" y="-525.3" font-family="Arial" font-weight="bold" font-size="14.00">PK</text>
<text text-anchor="start" x="117" y="-525.3" font-family="Arial" font-size="14.00"> id</text>
<polygon fill="none" stroke="black" points="93,-490.5 93,-515.5 230,-515.5 230,-490.5 93,-490.5"/>
<text text-anchor="start" x="98" y="-500.3" font-family="Arial" font-weight="bold" font-size="14.00">FK</text>
<text text-anchor="start" x="117" y="-500.3" font-family="Arial" font-size="14.00"> blob_id</text>
<polygon fill="none" stroke="black" points="93,-465.5 93,-490.5 230,-490.5 230,-465.5 93,-465.5"/>
<text text-anchor="start" x="98" y="-475.3" font-family="Arial" font-weight="bold" font-size="14.00">FK</text>
<text text-anchor="start" x="117" y="-475.3" font-family="Arial" font-size="14.00"> project_id</text>
<polygon fill="none" stroke="black" points="93,-440.5 93,-465.5 230,-465.5 230,-440.5 93,-440.5"/>
<text text-anchor="start" x="98" y="-449.3" font-family="Arial" font-size="14.00">created_at</text>
<polygon fill="none" stroke="black" points="93,-419.5 93,-440.5 230,-440.5 230,-419.5 93,-419.5"/>
<text text-anchor="start" x="98" y="-427.5" font-family="Arial" font-size="10.00" fill="#64748b">org KB doc used by a project</text>
</g>
<!-- blob_uses&#45;&gt;projectstate -->
<g id="edge15" class="edge">
<title>blob_uses:t&#45;&gt;projectstate:t</title>
<path fill="none" stroke="#64748b" stroke-dasharray="5,2" d="M231,-553.5C385.74,-553.5 800.2,-506.39 926,-596.5 965.42,-624.73 933.72,-690.21 972.84,-697.78"/>
<polygon fill="#64748b" stroke="#64748b" points="972.79,-700.59 981,-698.5 973.28,-695.01 972.79,-700.59"/>
</g>
<!-- blob_uses&#45;&gt;blobs -->
<g id="edge14" class="edge">
<title>blob_uses:t&#45;&gt;blobs:t</title>
<path fill="none" stroke="#334155" d="M231,-553.5C294.85,-553.5 401.79,-396.52 469,-384.26"/>
<polygon fill="#334155" stroke="#334155" points="469.3,-387.04 477,-383.5 468.77,-381.47 469.3,-387.04"/>
</g>
<!-- doc_summary -->
<g id="node16" class="node">
<title>doc_summary</title>
<polygon fill="white" stroke="transparent" points="37.5,-201.5 37.5,-393.5 284.5,-393.5 284.5,-201.5 37.5,-201.5"/>
<polygon fill="#ecfdf5" stroke="transparent" points="38,-368.5 38,-393.5 285,-393.5 285,-368.5 38,-368.5"/>
<polygon fill="none" stroke="black" points="38,-368.5 38,-393.5 285,-393.5 285,-368.5 38,-368.5"/>
<text text-anchor="start" x="114.5" y="-378.3" font-family="Arial" font-weight="bold" font-size="14.00">doc_summary</text>
<polygon fill="none" stroke="black" points="38,-343.5 38,-368.5 285,-368.5 285,-343.5 38,-343.5"/>
<text text-anchor="start" x="43" y="-353.3" font-family="Arial" font-weight="bold" font-size="14.00">PK/FK</text>
<text text-anchor="start" x="84" y="-353.3" font-family="Arial" font-size="14.00"> blob_id → blobs (cascade)</text>
<polygon fill="none" stroke="black" points="38,-318.5 38,-343.5 285,-343.5 285,-318.5 38,-318.5"/>
<text text-anchor="start" x="43" y="-327.3" font-family="Arial" font-size="14.00">scope, scope_id</text>
<polygon fill="none" stroke="black" points="38,-293.5 38,-318.5 285,-318.5 285,-293.5 38,-293.5"/>
<text text-anchor="start" x="43" y="-302.3" font-family="Arial" font-size="14.00">summary_md, key_facts jsonb</text>
<polygon fill="none" stroke="black" points="38,-268.5 38,-293.5 285,-293.5 285,-268.5 38,-268.5"/>
<text text-anchor="start" x="43" y="-277.3" font-family="Arial" font-size="14.00">outline jsonb, embedding halfvec(3072)</text>
<polygon fill="none" stroke="black" points="38,-243.5 38,-268.5 285,-268.5 285,-243.5 38,-243.5"/>
<text text-anchor="start" x="43" y="-252.3" font-family="Arial" font-size="14.00">token_count, content_sha256, status</text>
<polygon fill="none" stroke="black" points="38,-222.5 38,-243.5 285,-243.5 285,-222.5 38,-222.5"/>
<text text-anchor="start" x="43" y="-230.5" font-family="Arial" font-size="10.00" fill="#64748b">per&#45;document &quot;2,000&#45;ft view&quot;; key_facts carry</text>
<polygon fill="none" stroke="black" points="38,-201.5 38,-222.5 285,-222.5 285,-201.5 38,-201.5"/>
<text text-anchor="start" x="43" y="-209.5" font-family="Arial" font-size="10.00" fill="#64748b">source refs, never bare confidence scores</text>
</g>
<!-- doc_summary&#45;&gt;blobs -->
<g id="edge18" class="edge">
<title>doc_summary:t&#45;&gt;blobs:t</title>
<path fill="none" stroke="#334155" d="M286,-381.5C368.07,-381.5 390.63,-383.37 468.75,-383.49"/>
<polygon fill="#334155" stroke="#334155" points="469,-386.29 477,-383.5 469,-380.69 469,-386.29"/>
</g>
<!-- chunk -->
<g id="node17" class="node">
<title>chunk</title>
<polygon fill="white" stroke="transparent" points="41,-4 41,-175 281,-175 281,-4 41,-4"/>
<polygon fill="#ecfdf5" stroke="transparent" points="41,-149.5 41,-174.5 281,-174.5 281,-149.5 41,-149.5"/>
<polygon fill="none" stroke="black" points="41,-149.5 41,-174.5 281,-174.5 281,-149.5 41,-149.5"/>
<text text-anchor="start" x="141" y="-159.3" font-family="Arial" font-weight="bold" font-size="14.00">chunk</text>
<polygon fill="none" stroke="black" points="41,-124.5 41,-149.5 281,-149.5 281,-124.5 41,-124.5"/>
<text text-anchor="start" x="46" y="-134.3" font-family="Arial" font-weight="bold" font-size="14.00">PK</text>
<text text-anchor="start" x="65" y="-134.3" font-family="Arial" font-size="14.00"> id</text>
<polygon fill="none" stroke="black" points="41,-99.5 41,-124.5 281,-124.5 281,-99.5 41,-99.5"/>
<text text-anchor="start" x="46" y="-109.3" font-family="Arial" font-weight="bold" font-size="14.00">FK</text>
<text text-anchor="start" x="65" y="-109.3" font-family="Arial" font-size="14.00"> blob_id → blobs (cascade)</text>
<polygon fill="none" stroke="black" points="41,-74.5 41,-99.5 281,-99.5 281,-74.5 41,-74.5"/>
<text text-anchor="start" x="46" y="-83.3" font-family="Arial" font-size="14.00">scope, scope_id, ordinal, section_path</text>
<polygon fill="none" stroke="black" points="41,-49.5 41,-74.5 281,-74.5 281,-49.5 41,-49.5"/>
<text text-anchor="start" x="46" y="-58.3" font-family="Arial" font-size="14.00">content, dense halfvec(3072)</text>
<polygon fill="none" stroke="black" points="41,-24.5 41,-49.5 281,-49.5 281,-24.5 41,-24.5"/>
<text text-anchor="start" x="46" y="-33.3" font-family="Arial" font-size="14.00">fts tsvector (generated), token_count</text>
<polygon fill="none" stroke="black" points="41,-3.5 41,-24.5 281,-24.5 281,-3.5 41,-3.5"/>
<text text-anchor="start" x="46" y="-11.5" font-family="Arial" font-size="10.00" fill="#64748b">leaf retrieval unit; hybrid dense+keyword</text>
</g>
<!-- chunk&#45;&gt;blobs -->
<g id="edge19" class="edge">
<title>chunk:t&#45;&gt;blobs:t</title>
<path fill="none" stroke="#334155" d="M282,-162.5C410.18,-162.5 348.8,-374.11 468.83,-383.2"/>
<polygon fill="#334155" stroke="#334155" points="468.9,-386 477,-383.5 469.11,-380.41 468.9,-386"/>
</g>
<!-- conversation -->
<g id="node18" class="node">
<title>conversation</title>
<polygon fill="white" stroke="transparent" points="8,-591.5 8,-841.5 314,-841.5 314,-591.5 8,-591.5"/>
<polygon fill="#fef9c3" stroke="transparent" points="8,-816.5 8,-841.5 314,-841.5 314,-816.5 8,-816.5"/>
<polygon fill="none" stroke="black" points="8,-816.5 8,-841.5 314,-841.5 314,-816.5 8,-816.5"/>
<text text-anchor="start" x="118.5" y="-826.3" font-family="Arial" font-weight="bold" font-size="14.00">conversation</text>
<polygon fill="none" stroke="black" points="8,-791.5 8,-816.5 314,-816.5 314,-791.5 8,-791.5"/>
<text text-anchor="start" x="13" y="-801.3" font-family="Arial" font-weight="bold" font-size="14.00">PK</text>
<text text-anchor="start" x="32" y="-801.3" font-family="Arial" font-size="14.00"> id (uuid) — the message_id</text>
<polygon fill="none" stroke="black" points="8,-766.5 8,-791.5 314,-791.5 314,-766.5 8,-766.5"/>
<text text-anchor="start" x="13" y="-775.3" font-family="Arial" font-size="14.00">session_id (uuid), seq — unique(session_id, seq)</text>
<polygon fill="none" stroke="black" points="8,-741.5 8,-766.5 314,-766.5 314,-741.5 8,-741.5"/>
<text text-anchor="start" x="13" y="-751.3" font-family="Arial" font-weight="bold" font-size="14.00">FK</text>
<text text-anchor="start" x="32" y="-751.3" font-family="Arial" font-size="14.00"> user_id → users; project_id, org_id</text>
<polygon fill="none" stroke="black" points="8,-716.5 8,-741.5 314,-741.5 314,-716.5 8,-716.5"/>
<text text-anchor="start" x="13" y="-725.3" font-family="Arial" font-size="14.00">role : user | agent | tool | system</text>
<polygon fill="none" stroke="black" points="8,-691.5 8,-716.5 314,-716.5 314,-691.5 8,-691.5"/>
<text text-anchor="start" x="13" y="-700.3" font-family="Arial" font-size="14.00">input, json_blob jsonb (canonical blocks)</text>
<polygon fill="none" stroke="black" points="8,-666.5 8,-691.5 314,-691.5 314,-666.5 8,-666.5"/>
<text text-anchor="start" x="13" y="-675.3" font-family="Arial" font-size="14.00">tool_name, tool_call_id, tool_result jsonb</text>
<polygon fill="none" stroke="black" points="8,-641.5 8,-666.5 314,-666.5 314,-641.5 8,-641.5"/>
<text text-anchor="start" x="13" y="-651.3" font-family="Arial" font-weight="bold" font-size="14.00">FK</text>
<text text-anchor="start" x="32" y="-651.3" font-family="Arial" font-size="14.00"> referenced_artifact → blobs</text>
<polygon fill="none" stroke="black" points="8,-616.5 8,-641.5 314,-641.5 314,-616.5 8,-616.5"/>
<text text-anchor="start" x="13" y="-625.3" font-family="Arial" font-size="14.00">model, provider, *_tokens, cost_usd</text>
<polygon fill="none" stroke="black" points="8,-591.5 8,-616.5 314,-616.5 314,-591.5 8,-591.5"/>
<text text-anchor="start" x="13" y="-600.3" font-family="Arial" font-size="14.00">created_at, updated_at</text>
</g>
<!-- conversation&#45;&gt;projectstate -->
<g id="edge22" class="edge">
<title>conversation:t&#45;&gt;projectstate:t</title>
<path fill="none" stroke="#64748b" stroke-dasharray="5,2" d="M315,-829.5C424.86,-829.5 350.78,-673.53 447,-620.5 540.23,-569.12 832.02,-575.51 926,-625.5 959.2,-643.16 943.25,-690.69 972.93,-697.65"/>
<polygon fill="#64748b" stroke="#64748b" points="972.75,-700.44 981,-698.5 973.34,-694.87 972.75,-700.44"/>
<text text-anchor="start" x="615.5" y="-623.3" font-family="Times,serif" font-size="9.00">project_id</text>
</g>
<!-- conversation&#45;&gt;users -->
<g id="edge20" class="edge">
<title>conversation:t&#45;&gt;users:t</title>
<path fill="none" stroke="#334155" d="M315,-829.5C403.68,-829.5 365.08,-972.15 445.81,-981.06"/>
<polygon fill="#334155" stroke="#334155" points="445.86,-983.87 454,-981.5 446.16,-978.28 445.86,-983.87"/>
<text text-anchor="start" x="367.5" y="-977.3" font-family="Times,serif" font-size="9.00">user_id</text>
</g>
<!-- conversation&#45;&gt;blobs -->
<g id="edge21" class="edge">
<title>conversation:t&#45;&gt;blobs:t</title>
<path fill="none" stroke="#64748b" stroke-dasharray="5,2" d="M315,-829.5C342.03,-829.5 330.78,-612.91 340,-587.5 364.13,-520.99 395.65,-517.9 429,-455.5 445.71,-424.23 439.72,-389.42 468.81,-384.18"/>
<polygon fill="#64748b" stroke="#64748b" points="469.26,-386.95 477,-383.5 468.8,-381.37 469.26,-386.95"/>
<text text-anchor="start" x="340" y="-590.3" font-family="Times,serif" font-size="9.00">referenced_artifact</text>
</g>
</g>
</svg>
