<?xml version="1.0" encoding="UTF-8" standalone="no"?>
<!DOCTYPE svg PUBLIC "-//W3C//DTD SVG 1.1//EN"
 "http://www.w3.org/Graphics/SVG/1.1/DTD/svg11.dtd">
<!-- Generated by graphviz version 2.43.0 (0)
 -->
<!-- Title: SchemaERD Pages: 1 -->
<svg width="1331pt" height="1094pt"
 viewBox="0.00 0.00 1331.00 1093.50" xmlns="http://www.w3.org/2000/svg" xmlns:xlink="http://www.w3.org/1999/xlink">
<g id="graph0" class="graph" transform="scale(1 1) rotate(0) translate(4 1089.5)">
<title>SchemaERD</title>
<polygon fill="#f8fafc" stroke="transparent" points="-4,4 -4,-1089.5 1327,-1089.5 1327,4 -4,4"/>
<text text-anchor="start" x="547" y="-1064.9" font-family="Arial" font-weight="bold" font-size="22.00">Console Schema ERD</text>
<text text-anchor="start" x="236.5" y="-1050.1" font-family="Arial" font-size="13.00" fill="#475569">One flat </text>
<text text-anchor="start" x="287.5" y="-1050.1" font-family="monospace" font-size="13.00" fill="#475569">public</text>
<text text-anchor="start" x="333.5" y="-1050.1" font-family="Arial" font-size="13.00" fill="#475569"> schema — per&#45;project tables keyed by project_id; global directory tables are single row&#45;sets. (src/software_factory/models.py)</text>
<!-- projectstate -->
<g id="node1" class="node">
<title>projectstate</title>
<polygon fill="white" stroke="transparent" points="576,-459.5 576,-587.5 738,-587.5 738,-459.5 576,-459.5"/>
<polygon fill="#e0f2fe" stroke="transparent" points="576,-562.5 576,-587.5 738,-587.5 738,-562.5 576,-562.5"/>
<polygon fill="none" stroke="black" points="576,-562.5 576,-587.5 738,-587.5 738,-562.5 576,-562.5"/>
<text text-anchor="start" x="618.5" y="-572.3" font-family="Arial" font-weight="bold" font-size="14.00">projectstate</text>
<polygon fill="none" stroke="black" points="576,-537.5 576,-562.5 738,-562.5 738,-537.5 576,-537.5"/>
<text text-anchor="start" x="581" y="-547.3" font-family="Arial" font-weight="bold" font-size="14.00">PK</text>
<text text-anchor="start" x="600" y="-547.3" font-family="Arial" font-size="14.00"> project_id</text>
<polygon fill="none" stroke="black" points="576,-512.5 576,-537.5 738,-537.5 738,-512.5 576,-512.5"/>
<text text-anchor="start" x="581" y="-521.3" font-family="Arial" font-size="14.00">data : ProjectState JSON</text>
<polygon fill="none" stroke="black" points="576,-480.5 576,-512.5 738,-512.5 738,-480.5 576,-480.5"/>
<text text-anchor="start" x="581" y="-499.5" font-family="Arial" font-size="10.00" fill="#64748b">(JSON holds name, owner, phase,</text>
<text text-anchor="start" x="594" y="-488.5" font-family="Arial" font-size="10.00" fill="#64748b">stage, models, budget, brief)</text>
<polygon fill="none" stroke="black" points="576,-459.5 576,-480.5 738,-480.5 738,-459.5 576,-459.5"/>
<text text-anchor="start" x="581" y="-467.5" font-family="Arial" font-size="10.00" fill="#64748b">also the project registry</text>
</g>
<!-- phases -->
<g id="node2" class="node">
<title>phases</title>
<polygon fill="white" stroke="transparent" points="851.5,-938.5 851.5,-1038.5 998.5,-1038.5 998.5,-938.5 851.5,-938.5"/>
<polygon fill="#f1f5f9" stroke="transparent" points="852,-1013.5 852,-1038.5 999,-1038.5 999,-1013.5 852,-1013.5"/>
<polygon fill="none" stroke="black" points="852,-1013.5 852,-1038.5 999,-1038.5 999,-1013.5 852,-1013.5"/>
<text text-anchor="start" x="902" y="-1023.3" font-family="Arial" font-weight="bold" font-size="14.00">phases</text>
<polygon fill="none" stroke="black" points="852,-988.5 852,-1013.5 999,-1013.5 999,-988.5 852,-988.5"/>
<text text-anchor="start" x="857" y="-998.3" font-family="Arial" font-weight="bold" font-size="14.00">PK</text>
<text text-anchor="start" x="876" y="-998.3" font-family="Arial" font-size="14.00"> id</text>
<polygon fill="none" stroke="black" points="852,-963.5 852,-988.5 999,-988.5 999,-963.5 852,-963.5"/>
<text text-anchor="start" x="857" y="-973.3" font-family="Arial" font-weight="bold" font-size="14.00">FK</text>
<text text-anchor="start" x="876" y="-973.3" font-family="Arial" font-size="14.00"> project_id</text>
<polygon fill="none" stroke="black" points="852,-938.5 852,-963.5 999,-963.5 999,-938.5 852,-938.5"/>
<text text-anchor="start" x="857" y="-947.3" font-family="Arial" font-size="14.00">name, status, stage, ts</text>
</g>
<!-- projectstate&#45;&gt;phases -->
<g id="edge1" class="edge">
<title>projectstate:t&#45;&gt;phases:t</title>
<path fill="none" stroke="#334155" d="M739,-575.5C761.88,-575.5 771.81,-581.14 784,-600.5 819.24,-656.45 788.1,-832.86 802,-897.5 814.29,-954.65 791.95,-1020.05 842.93,-1026.05"/>
<polygon fill="#334155" stroke="#334155" points="842.86,-1028.85 851,-1026.5 843.17,-1023.26 842.86,-1028.85"/>
</g>
<!-- artifacts -->
<g id="node3" class="node">
<title>artifacts</title>
<polygon fill="white" stroke="transparent" points="846.5,-791 846.5,-912 1003.5,-912 1003.5,-791 846.5,-791"/>
<polygon fill="#f1f5f9" stroke="transparent" points="847,-886.5 847,-911.5 1004,-911.5 1004,-886.5 847,-886.5"/>
<polygon fill="none" stroke="black" points="847,-886.5 847,-911.5 1004,-911.5 1004,-886.5 847,-886.5"/>
<text text-anchor="start" x="899" y="-896.3" font-family="Arial" font-weight="bold" font-size="14.00">artifacts</text>
<polygon fill="none" stroke="black" points="847,-861.5 847,-886.5 1004,-886.5 1004,-861.5 847,-861.5"/>
<text text-anchor="start" x="852" y="-871.3" font-family="Arial" font-weight="bold" font-size="14.00">PK</text>
<text text-anchor="start" x="871" y="-871.3" font-family="Arial" font-size="14.00"> id</text>
<polygon fill="none" stroke="black" points="847,-836.5 847,-861.5 1004,-861.5 1004,-836.5 847,-836.5"/>
<text text-anchor="start" x="852" y="-846.3" font-family="Arial" font-weight="bold" font-size="14.00">FK</text>
<text text-anchor="start" x="871" y="-846.3" font-family="Arial" font-size="14.00"> project_id</text>
<polygon fill="none" stroke="black" points="847,-811.5 847,-836.5 1004,-836.5 1004,-811.5 847,-811.5"/>
<text text-anchor="start" x="852" y="-820.3" font-family="Arial" font-size="14.00">title, path, kind, agent, ts</text>
<polygon fill="none" stroke="black" points="847,-790.5 847,-811.5 1004,-811.5 1004,-790.5 847,-790.5"/>
<text text-anchor="start" x="852" y="-798.5" font-family="Arial" font-size="10.00" fill="#64748b">metadata only; bytes via blobs</text>
</g>
<!-- projectstate&#45;&gt;artifacts -->
<g id="edge2" class="edge">
<title>projectstate:t&#45;&gt;artifacts:t</title>
<path fill="none" stroke="#334155" d="M739,-575.5C887.84,-575.5 701.52,-887.59 837.91,-899.17"/>
<polygon fill="#334155" stroke="#334155" points="837.89,-901.97 846,-899.5 838.12,-896.38 837.89,-901.97"/>
</g>
<!-- blockers -->
<g id="node4" class="node">
<title>blockers</title>
<polygon fill="white" stroke="transparent" points="847.5,-664.5 847.5,-764.5 1002.5,-764.5 1002.5,-664.5 847.5,-664.5"/>
<polygon fill="#f1f5f9" stroke="transparent" points="848,-739.5 848,-764.5 1003,-764.5 1003,-739.5 848,-739.5"/>
<polygon fill="none" stroke="black" points="848,-739.5 848,-764.5 1003,-764.5 1003,-739.5 848,-739.5"/>
<text text-anchor="start" x="897.5" y="-749.3" font-family="Arial" font-weight="bold" font-size="14.00">blockers</text>
<polygon fill="none" stroke="black" points="848,-714.5 848,-739.5 1003,-739.5 1003,-714.5 848,-714.5"/>
<text text-anchor="start" x="853" y="-724.3" font-family="Arial" font-weight="bold" font-size="14.00">PK</text>
<text text-anchor="start" x="872" y="-724.3" font-family="Arial" font-size="14.00"> id</text>
<polygon fill="none" stroke="black" points="848,-689.5 848,-714.5 1003,-714.5 1003,-689.5 848,-689.5"/>
<text text-anchor="start" x="853" y="-699.3" font-family="Arial" font-weight="bold" font-size="14.00">FK</text>
<text text-anchor="start" x="872" y="-699.3" font-family="Arial" font-size="14.00"> project_id</text>
<polygon fill="none" stroke="black" points="848,-664.5 848,-689.5 1003,-689.5 1003,-664.5 848,-664.5"/>
<text text-anchor="start" x="853" y="-673.3" font-family="Arial" font-size="14.00">what, blocks, cleared, ts</text>
</g>
<!-- projectstate&#45;&gt;blockers -->
<g id="edge3" class="edge">
<title>projectstate:t&#45;&gt;blockers:t</title>
<path fill="none" stroke="#334155" d="M739,-575.5C761.88,-575.5 768.77,-583.43 784,-600.5 830.68,-652.84 778.51,-744.58 838.65,-752.02"/>
<polygon fill="#334155" stroke="#334155" points="838.85,-754.83 847,-752.5 839.17,-749.24 838.85,-754.83"/>
</g>
<!-- gates -->
<g id="node5" class="node">
<title>gates</title>
<polygon fill="white" stroke="transparent" points="853.5,-563 853.5,-638 996.5,-638 996.5,-563 853.5,-563"/>
<polygon fill="#f1f5f9" stroke="transparent" points="854,-612.5 854,-637.5 997,-637.5 997,-612.5 854,-612.5"/>
<polygon fill="none" stroke="black" points="854,-612.5 854,-637.5 997,-637.5 997,-612.5 854,-612.5"/>
<text text-anchor="start" x="907.5" y="-622.3" font-family="Arial" font-weight="bold" font-size="14.00">gates</text>
<polygon fill="none" stroke="black" points="854,-587.5 854,-612.5 997,-612.5 997,-587.5 854,-587.5"/>
<text text-anchor="start" x="859" y="-597.3" font-family="Arial" font-weight="bold" font-size="14.00">PK</text>
<text text-anchor="start" x="878" y="-597.3" font-family="Arial" font-size="14.00"> (project_id, name)</text>
<polygon fill="none" stroke="black" points="854,-562.5 854,-587.5 997,-587.5 997,-562.5 854,-562.5"/>
<text text-anchor="start" x="859" y="-571.3" font-family="Arial" font-size="14.00">status, ts</text>
</g>
<!-- projectstate&#45;&gt;gates -->
<g id="edge4" class="edge">
<title>projectstate:t&#45;&gt;gates:t</title>
<path fill="none" stroke="#334155" d="M739,-575.5C791.52,-575.5 797.2,-620.55 844.96,-625.13"/>
<polygon fill="#334155" stroke="#334155" points="844.88,-627.93 853,-625.5 845.14,-622.33 844.88,-627.93"/>
</g>
<!-- verifications -->
<g id="node6" class="node">
<title>verifications</title>
<polygon fill="white" stroke="transparent" points="857.5,-416 857.5,-537 992.5,-537 992.5,-416 857.5,-416"/>
<polygon fill="#f1f5f9" stroke="transparent" points="858,-511.5 858,-536.5 993,-536.5 993,-511.5 858,-511.5"/>
<polygon fill="none" stroke="black" points="858,-511.5 858,-536.5 993,-536.5 993,-511.5 858,-511.5"/>
<text text-anchor="start" x="885.5" y="-521.3" font-family="Arial" font-weight="bold" font-size="14.00">verifications</text>
<polygon fill="none" stroke="black" points="858,-486.5 858,-511.5 993,-511.5 993,-486.5 858,-486.5"/>
<text text-anchor="start" x="863" y="-496.3" font-family="Arial" font-weight="bold" font-size="14.00">PK</text>
<text text-anchor="start" x="882" y="-496.3" font-family="Arial" font-size="14.00"> id</text>
<polygon fill="none" stroke="black" points="858,-461.5 858,-486.5 993,-486.5 993,-461.5 858,-461.5"/>
<text text-anchor="start" x="863" y="-471.3" font-family="Arial" font-weight="bold" font-size="14.00">FK</text>
<text text-anchor="start" x="882" y="-471.3" font-family="Arial" font-size="14.00"> project_id</text>
<polygon fill="none" stroke="black" points="858,-436.5 858,-461.5 993,-461.5 993,-436.5 858,-436.5"/>
<text text-anchor="start" x="863" y="-445.3" font-family="Arial" font-size="14.00">url, passed, result, ts</text>
<polygon fill="none" stroke="black" points="858,-415.5 858,-436.5 993,-436.5 993,-415.5 858,-415.5"/>
<text text-anchor="start" x="863" y="-423.5" font-family="Arial" font-size="10.00" fill="#64748b">passed = Stage 3 done gate</text>
</g>
<!-- projectstate&#45;&gt;verifications -->
<g id="edge5" class="edge">
<title>projectstate:t&#45;&gt;verifications:t</title>
<path fill="none" stroke="#334155" d="M739,-575.5C793.34,-575.5 799.37,-529.36 849,-524.85"/>
<polygon fill="#334155" stroke="#334155" points="849.13,-527.65 857,-524.5 848.88,-522.06 849.13,-527.65"/>
</g>
<!-- deployments -->
<g id="node7" class="node">
<title>deployments</title>
<polygon fill="white" stroke="transparent" points="851,-243.5 851,-389.5 999,-389.5 999,-243.5 851,-243.5"/>
<polygon fill="#f1f5f9" stroke="transparent" points="851,-364.5 851,-389.5 999,-389.5 999,-364.5 851,-364.5"/>
<polygon fill="none" stroke="black" points="851,-364.5 851,-389.5 999,-389.5 999,-364.5 851,-364.5"/>
<text text-anchor="start" x="882.5" y="-374.3" font-family="Arial" font-weight="bold" font-size="14.00">deployments</text>
<polygon fill="none" stroke="black" points="851,-339.5 851,-364.5 999,-364.5 999,-339.5 851,-339.5"/>
<text text-anchor="start" x="856" y="-349.3" font-family="Arial" font-weight="bold" font-size="14.00">PK</text>
<text text-anchor="start" x="875" y="-349.3" font-family="Arial" font-size="14.00"> id</text>
<polygon fill="none" stroke="black" points="851,-314.5 851,-339.5 999,-339.5 999,-314.5 851,-314.5"/>
<text text-anchor="start" x="856" y="-324.3" font-family="Arial" font-weight="bold" font-size="14.00">FK</text>
<text text-anchor="start" x="875" y="-324.3" font-family="Arial" font-size="14.00"> project_id</text>
<polygon fill="none" stroke="black" points="851,-289.5 851,-314.5 999,-314.5 999,-289.5 851,-289.5"/>
<text text-anchor="start" x="856" y="-298.3" font-family="Arial" font-size="14.00">app, service_name, url</text>
<polygon fill="none" stroke="black" points="851,-264.5 851,-289.5 999,-289.5 999,-264.5 851,-264.5"/>
<text text-anchor="start" x="856" y="-273.3" font-family="Arial" font-size="14.00">status, verified, ts</text>
<polygon fill="none" stroke="black" points="851,-243.5 851,-264.5 999,-264.5 999,-243.5 851,-243.5"/>
<text text-anchor="start" x="856" y="-251.5" font-family="Arial" font-size="10.00" fill="#64748b">1..N deliverables per project</text>
</g>
<!-- projectstate&#45;&gt;deployments -->
<g id="edge6" class="edge">
<title>projectstate:t&#45;&gt;deployments:t</title>
<path fill="none" stroke="#334155" d="M739,-575.5C837.03,-575.5 754.1,-388.56 841.88,-377.97"/>
<polygon fill="#334155" stroke="#334155" points="842.17,-380.76 850,-377.5 841.85,-375.16 842.17,-380.76"/>
</g>
<!-- tickets -->
<g id="node8" class="node">
<title>tickets</title>
<polygon fill="white" stroke="transparent" points="829,-4 829,-179 1021,-179 1021,-4 829,-4"/>
<polygon fill="#f1f5f9" stroke="transparent" points="829,-153.5 829,-178.5 1021,-178.5 1021,-153.5 829,-153.5"/>
<polygon fill="none" stroke="black" points="829,-153.5 829,-178.5 1021,-178.5 1021,-153.5 829,-153.5"/>
<text text-anchor="start" x="903.5" y="-163.3" font-family="Arial" font-weight="bold" font-size="14.00">tickets</text>
<polygon fill="none" stroke="black" points="829,-128.5 829,-153.5 1021,-153.5 1021,-128.5 829,-128.5"/>
<text text-anchor="start" x="834" y="-138.3" font-family="Arial" font-weight="bold" font-size="14.00">PK</text>
<text text-anchor="start" x="853" y="-138.3" font-family="Arial" font-size="14.00"> id</text>
<polygon fill="none" stroke="black" points="829,-103.5 829,-128.5 1021,-128.5 1021,-103.5 829,-103.5"/>
<text text-anchor="start" x="834" y="-113.3" font-family="Arial" font-weight="bold" font-size="14.00">FK</text>
<text text-anchor="start" x="853" y="-113.3" font-family="Arial" font-size="14.00"> project_id</text>
<polygon fill="none" stroke="black" points="829,-78.5 829,-103.5 1021,-103.5 1021,-78.5 829,-78.5"/>
<text text-anchor="start" x="834" y="-87.3" font-family="Arial" font-size="14.00">title, acceptance, dod, wave</text>
<polygon fill="none" stroke="black" points="829,-53.5 829,-78.5 1021,-78.5 1021,-53.5 829,-53.5"/>
<text text-anchor="start" x="834" y="-62.3" font-family="Arial" font-size="14.00">status (6&#45;state), agent, app</text>
<polygon fill="none" stroke="black" points="829,-28.5 829,-53.5 1021,-53.5 1021,-28.5 829,-28.5"/>
<text text-anchor="start" x="834" y="-37.3" font-family="Arial" font-size="14.00">provenance, provenance_type</text>
<polygon fill="none" stroke="black" points="829,-3.5 829,-28.5 1021,-28.5 1021,-3.5 829,-3.5"/>
<text text-anchor="start" x="834" y="-12.3" font-family="Arial" font-size="14.00">diff_lines, description</text>
</g>
<!-- projectstate&#45;&gt;tickets -->
<g id="edge7" class="edge">
<title>projectstate:t&#45;&gt;tickets:t</title>
<path fill="none" stroke="#334155" d="M739,-575.5C799.72,-575.5 771.7,-505.96 784,-446.5 796.18,-387.59 767.78,-185.8 820.07,-167.79"/>
<polygon fill="#334155" stroke="#334155" points="820.55,-170.55 828,-166.5 819.65,-165.02 820.55,-170.55"/>
</g>
<!-- agents -->
<g id="node9" class="node">
<title>agents</title>
<polygon fill="white" stroke="transparent" points="1113,-50.5 1113,-200.5 1315,-200.5 1315,-50.5 1113,-50.5"/>
<polygon fill="#f1f5f9" stroke="transparent" points="1113,-175.5 1113,-200.5 1315,-200.5 1315,-175.5 1113,-175.5"/>
<polygon fill="none" stroke="black" points="1113,-175.5 1113,-200.5 1315,-200.5 1315,-175.5 1113,-175.5"/>
<text text-anchor="start" x="1192" y="-185.3" font-family="Arial" font-weight="bold" font-size="14.00">agents</text>
<polygon fill="none" stroke="black" points="1113,-150.5 1113,-175.5 1315,-175.5 1315,-150.5 1113,-150.5"/>
<text text-anchor="start" x="1118" y="-160.3" font-family="Arial" font-weight="bold" font-size="14.00">PK</text>
<text text-anchor="start" x="1137" y="-160.3" font-family="Arial" font-size="14.00"> (agent_id, project_id)</text>
<polygon fill="none" stroke="black" points="1113,-125.5 1113,-150.5 1315,-150.5 1315,-125.5 1113,-125.5"/>
<text text-anchor="start" x="1118" y="-134.3" font-family="Arial" font-size="14.00">ticket_id, role, model, phase</text>
<polygon fill="none" stroke="black" points="1113,-100.5 1113,-125.5 1315,-125.5 1315,-100.5 1113,-100.5"/>
<text text-anchor="start" x="1118" y="-109.3" font-family="Arial" font-size="14.00">status, outcome, cost_usd</text>
<polygon fill="none" stroke="black" points="1113,-75.5 1113,-100.5 1315,-100.5 1315,-75.5 1113,-75.5"/>
<text text-anchor="start" x="1118" y="-84.3" font-family="Arial" font-size="14.00">*_tokens, provenance, diff_lines</text>
<polygon fill="none" stroke="black" points="1113,-50.5 1113,-75.5 1315,-75.5 1315,-50.5 1113,-50.5"/>
<text text-anchor="start" x="1118" y="-59.3" font-family="Arial" font-size="14.00">started_at, ended_at</text>
</g>
<!-- projectstate&#45;&gt;agents -->
<g id="edge8" class="edge">
<title>projectstate:t&#45;&gt;agents:t</title>
<path fill="none" stroke="#334155" d="M739,-575.5C799.72,-575.5 768.82,-505.29 784,-446.5 808.35,-352.19 750.56,-297.76 821,-230.5 864.08,-189.37 1029.07,-211.34 1087,-197.5 1095.26,-195.53 1098.46,-191.74 1103.99,-189.77"/>
<polygon fill="#334155" stroke="#334155" points="1104.54,-192.52 1112,-188.5 1103.66,-186.98 1104.54,-192.52"/>
</g>
<!-- tickets&#45;&gt;agents -->
<g id="edge9" class="edge">
<title>tickets:t&#45;&gt;agents:t</title>
<path fill="none" stroke="#64748b" stroke-dasharray="5,2" d="M1022,-166.5C1060.28,-166.5 1069.58,-185.52 1103.79,-188.19"/>
<polygon fill="#64748b" stroke="#64748b" points="1103.9,-191 1112,-188.5 1104.11,-185.4 1103.9,-191"/>
<text text-anchor="start" x="1047" y="-188.3" font-family="Times,serif" font-size="9.00">ticket_id</text>
</g>
<!-- organizations -->
<g id="node10" class="node">
<title>organizations</title>
<polygon fill="white" stroke="transparent" points="538,-740 538,-915 776,-915 776,-740 538,-740"/>
<polygon fill="#fef9c3" stroke="transparent" points="538,-889.5 538,-914.5 776,-914.5 776,-889.5 538,-889.5"/>
<polygon fill="none" stroke="black" points="538,-889.5 538,-914.5 776,-914.5 776,-889.5 538,-889.5"/>
<text text-anchor="start" x="613" y="-899.3" font-family="Arial" font-weight="bold" font-size="14.00">organizations</text>
<polygon fill="none" stroke="black" points="538,-864.5 538,-889.5 776,-889.5 776,-864.5 538,-864.5"/>
<text text-anchor="start" x="543" y="-874.3" font-family="Arial" font-weight="bold" font-size="14.00">PK</text>
<text text-anchor="start" x="562" y="-874.3" font-family="Arial" font-size="14.00"> id</text>
<polygon fill="none" stroke="black" points="538,-839.5 538,-864.5 776,-864.5 776,-839.5 538,-839.5"/>
<text text-anchor="start" x="543" y="-848.3" font-family="Arial" font-size="14.00">name, industry, sub_focus</text>
<polygon fill="none" stroke="black" points="538,-814.5 538,-839.5 776,-839.5 776,-814.5 538,-814.5"/>
<text text-anchor="start" x="543" y="-823.3" font-family="Arial" font-size="14.00">headcount, revenue (band text)</text>
<polygon fill="none" stroke="black" points="538,-789.5 538,-814.5 776,-814.5 776,-789.5 538,-789.5"/>
<text text-anchor="start" x="543" y="-798.3" font-family="Arial" font-size="14.00">location, website, connected_systems</text>
<polygon fill="none" stroke="black" points="538,-764.5 538,-789.5 776,-789.5 776,-764.5 538,-764.5"/>
<text text-anchor="start" x="543" y="-773.3" font-family="Arial" font-size="14.00">plan, monthly_budget_cap</text>
<polygon fill="none" stroke="black" points="538,-739.5 538,-764.5 776,-764.5 776,-739.5 538,-739.5"/>
<text text-anchor="start" x="543" y="-748.3" font-family="Arial" font-size="14.00">created_at, created_by</text>
</g>
<!-- roles -->
<g id="node11" class="node">
<title>roles</title>
<polygon fill="white" stroke="transparent" points="552.5,-613.5 552.5,-713.5 761.5,-713.5 761.5,-613.5 552.5,-613.5"/>
<polygon fill="#fde68a" stroke="transparent" points="553,-688.5 553,-713.5 762,-713.5 762,-688.5 553,-688.5"/>
<polygon fill="none" stroke="black" points="553,-688.5 553,-713.5 762,-713.5 762,-688.5 553,-688.5"/>
<text text-anchor="start" x="641" y="-698.3" font-family="Arial" font-weight="bold" font-size="14.00">roles</text>
<polygon fill="none" stroke="black" points="553,-663.5 553,-688.5 762,-688.5 762,-663.5 553,-663.5"/>
<text text-anchor="start" x="558" y="-673.3" font-family="Arial" font-weight="bold" font-size="14.00">PK</text>
<text text-anchor="start" x="577" y="-673.3" font-family="Arial" font-size="14.00"> id (uuid)</text>
<polygon fill="none" stroke="black" points="553,-638.5 553,-663.5 762,-663.5 762,-638.5 553,-638.5"/>
<text text-anchor="start" x="558" y="-647.3" font-family="Arial" font-size="14.00">name : admin | member (unique)</text>
<polygon fill="none" stroke="black" points="553,-613.5 553,-638.5 762,-638.5 762,-613.5 553,-613.5"/>
<text text-anchor="start" x="558" y="-622.3" font-family="Arial" font-size="14.00">description, created_at</text>
</g>
<!-- role_permissions -->
<g id="node12" class="node">
<title>role_permissions</title>
<polygon fill="white" stroke="transparent" points="187,-484.5 187,-580.5 375,-580.5 375,-484.5 187,-484.5"/>
<polygon fill="#fde68a" stroke="transparent" points="187,-555.5 187,-580.5 375,-580.5 375,-555.5 187,-555.5"/>
<polygon fill="none" stroke="black" points="187,-555.5 187,-580.5 375,-580.5 375,-555.5 187,-555.5"/>
<text text-anchor="start" x="224.5" y="-565.3" font-family="Arial" font-weight="bold" font-size="14.00">role_permissions</text>
<polygon fill="none" stroke="black" points="187,-530.5 187,-555.5 375,-555.5 375,-530.5 187,-530.5"/>
<text text-anchor="start" x="192" y="-540.3" font-family="Arial" font-weight="bold" font-size="14.00">PK</text>
<text text-anchor="start" x="211" y="-540.3" font-family="Arial" font-size="14.00"> (role_id, permission)</text>
<polygon fill="none" stroke="black" points="187,-505.5 187,-530.5 375,-530.5 375,-505.5 187,-505.5"/>
<text text-anchor="start" x="192" y="-515.3" font-family="Arial" font-weight="bold" font-size="14.00">FK</text>
<text text-anchor="start" x="211" y="-515.3" font-family="Arial" font-size="14.00"> role_id → roles (cascade)</text>
<polygon fill="none" stroke="black" points="187,-484.5 187,-505.5 375,-505.5 375,-484.5 187,-484.5"/>
<text text-anchor="start" x="192" y="-492.5" font-family="Arial" font-size="10.00" fill="#64748b">e.g. &#39;projects.delete&#39;</text>
</g>
<!-- role_permissions&#45;&gt;roles -->
<g id="edge11" class="edge">
<title>role_permissions:t&#45;&gt;roles:t</title>
<path fill="none" stroke="#334155" d="M376,-568.5C422.44,-568.5 494.84,-687.84 544.01,-700.43"/>
<polygon fill="#334155" stroke="#334155" points="543.7,-703.21 552,-701.5 544.44,-697.66 543.7,-703.21"/>
<text text-anchor="start" x="457.5" y="-681.3" font-family="Times,serif" font-size="9.00">role_id</text>
</g>
<!-- users -->
<g id="node13" class="node">
<title>users</title>
<polygon fill="white" stroke="transparent" points="153,-606.5 153,-906.5 409,-906.5 409,-606.5 153,-606.5"/>
<polygon fill="#fef9c3" stroke="transparent" points="153,-881.5 153,-906.5 409,-906.5 409,-881.5 153,-881.5"/>
<polygon fill="none" stroke="black" points="153,-881.5 153,-906.5 409,-906.5 409,-881.5 153,-881.5"/>
<text text-anchor="start" x="262.5" y="-891.3" font-family="Arial" font-weight="bold" font-size="14.00">users</text>
<polygon fill="none" stroke="black" points="153,-856.5 153,-881.5 409,-881.5 409,-856.5 153,-856.5"/>
<text text-anchor="start" x="158" y="-866.3" font-family="Arial" font-weight="bold" font-size="14.00">PK</text>
<text text-anchor="start" x="177" y="-866.3" font-family="Arial" font-size="14.00"> id (uuid)</text>
<polygon fill="none" stroke="black" points="153,-831.5 153,-856.5 409,-856.5 409,-831.5 153,-831.5"/>
<text text-anchor="start" x="158" y="-840.3" font-family="Arial" font-size="14.00">google_sub (unique, null until 1st sign&#45;in)</text>
<polygon fill="none" stroke="black" points="153,-806.5 153,-831.5 409,-831.5 409,-806.5 153,-806.5"/>
<text text-anchor="start" x="158" y="-815.3" font-family="Arial" font-size="14.00">email (unique) — allowlist match key</text>
<polygon fill="none" stroke="black" points="153,-781.5 153,-806.5 409,-806.5 409,-781.5 153,-781.5"/>
<text text-anchor="start" x="158" y="-791.3" font-family="Arial" font-weight="bold" font-size="14.00">FK</text>
<text text-anchor="start" x="177" y="-791.3" font-family="Arial" font-size="14.00"> role_id → roles</text>
<polygon fill="none" stroke="black" points="153,-756.5 153,-781.5 409,-781.5 409,-756.5 153,-756.5"/>
<text text-anchor="start" x="158" y="-765.3" font-family="Arial" font-size="14.00">is_internal (Tenexity staff flag)</text>
<polygon fill="none" stroke="black" points="153,-731.5 153,-756.5 409,-756.5 409,-731.5 153,-731.5"/>
<text text-anchor="start" x="158" y="-740.3" font-family="Arial" font-size="14.00">status : invited | active | disabled</text>
<polygon fill="none" stroke="black" points="153,-706.5 153,-731.5 409,-731.5 409,-706.5 153,-706.5"/>
<text text-anchor="start" x="158" y="-715.3" font-family="Arial" font-size="14.00">token_version (session revoke lever)</text>
<polygon fill="none" stroke="black" points="153,-681.5 153,-706.5 409,-706.5 409,-681.5 153,-681.5"/>
<text text-anchor="start" x="158" y="-690.3" font-family="Arial" font-size="14.00">metadata jsonb (non&#45;auth extensibility)</text>
<polygon fill="none" stroke="black" points="153,-656.5 153,-681.5 409,-681.5 409,-656.5 153,-656.5"/>
<text text-anchor="start" x="158" y="-666.3" font-family="Arial" font-weight="bold" font-size="14.00">FK</text>
<text text-anchor="start" x="177" y="-666.3" font-family="Arial" font-size="14.00"> invited_by → users; onboarded_at</text>
<polygon fill="none" stroke="black" points="153,-631.5 153,-656.5 409,-656.5 409,-631.5 153,-631.5"/>
<text text-anchor="start" x="158" y="-640.3" font-family="Arial" font-size="14.00">created_at, updated_at (trigger)</text>
<polygon fill="none" stroke="black" points="153,-606.5 153,-631.5 409,-631.5 409,-606.5 153,-606.5"/>
<text text-anchor="start" x="158" y="-616.3" font-family="Arial" font-weight="bold" font-size="14.00">FK</text>
<text text-anchor="start" x="177" y="-616.3" font-family="Arial" font-size="14.00"> org_id; designation, role_description</text>
</g>
<!-- users&#45;&gt;projectstate -->
<g id="edge16" class="edge">
<title>users:t&#45;&gt;projectstate:t</title>
<path fill="none" stroke="#64748b" stroke-dasharray="5,2" d="M410,-894.5C446.21,-894.5 414.03,-763.01 435,-733.5 457.46,-701.9 488.93,-723.66 512,-692.5 536.79,-659.02 505.51,-634.2 530,-600.5 541.66,-584.45 549.73,-577.44 566.59,-575.86"/>
<polygon fill="#64748b" stroke="#64748b" points="567.13,-578.64 575,-575.5 566.89,-573.04 567.13,-578.64"/>
<text text-anchor="start" x="435" y="-736.3" font-family="Times,serif" font-size="9.00">owner (in JSON)</text>
</g>
<!-- users&#45;&gt;organizations -->
<g id="edge13" class="edge">
<title>users:t&#45;&gt;organizations:t</title>
<path fill="none" stroke="#334155" d="M410,-894.5C463.68,-894.5 478.92,-901.71 528.7,-902.44"/>
<polygon fill="#334155" stroke="#334155" points="528.98,-905.24 537,-902.5 529.02,-899.64 528.98,-905.24"/>
<text text-anchor="start" x="458.5" y="-904.3" font-family="Times,serif" font-size="9.00">org_id</text>
</g>
<!-- users&#45;&gt;roles -->
<g id="edge10" class="edge">
<title>users:t&#45;&gt;roles:t</title>
<path fill="none" stroke="#334155" d="M410,-894.5C434.54,-894.5 511.89,-730.48 544.68,-704.85"/>
<polygon fill="#334155" stroke="#334155" points="545.89,-707.38 552,-701.5 543.56,-702.28 545.89,-707.38"/>
<text text-anchor="start" x="457.5" y="-873.3" font-family="Times,serif" font-size="9.00">role_id</text>
</g>
<!-- users&#45;&gt;users -->
<g id="edge12" class="edge">
<title>users:t&#45;&gt;users:t</title>
<path fill="none" stroke="#64748b" stroke-dasharray="5,2" d="M152.76,-901.16C96.92,-901.73 49,-899.51 49,-894.5 49,-889.73 92.36,-887.49 144.64,-887.77"/>
<polygon fill="#64748b" stroke="#64748b" points="144.73,-890.57 152.76,-887.84 144.78,-884.97 144.73,-890.57"/>
<text text-anchor="start" x="0" y="-754.3" font-family="Times,serif" font-size="9.00">invited_by</text>
</g>
<!-- blobs -->
<g id="node14" class="node">
<title>blobs</title>
<polygon fill="white" stroke="transparent" points="558.5,-283.5 558.5,-433.5 755.5,-433.5 755.5,-283.5 558.5,-283.5"/>
<polygon fill="#ecfdf5" stroke="transparent" points="559,-408.5 559,-433.5 756,-433.5 756,-408.5 559,-408.5"/>
<polygon fill="none" stroke="black" points="559,-408.5 559,-433.5 756,-433.5 756,-408.5 559,-408.5"/>
<text text-anchor="start" x="639" y="-418.3" font-family="Arial" font-weight="bold" font-size="14.00">blobs</text>
<polygon fill="none" stroke="black" points="559,-383.5 559,-408.5 756,-408.5 756,-383.5 559,-383.5"/>
<text text-anchor="start" x="564" y="-393.3" font-family="Arial" font-weight="bold" font-size="14.00">PK</text>
<text text-anchor="start" x="583" y="-393.3" font-family="Arial" font-size="14.00"> id</text>
<polygon fill="none" stroke="black" points="559,-358.5 559,-383.5 756,-383.5 756,-358.5 559,-358.5"/>
<text text-anchor="start" x="564" y="-367.3" font-family="Arial" font-size="14.00">scope : project | org, scope_id</text>
<polygon fill="none" stroke="black" points="559,-333.5 559,-358.5 756,-358.5 756,-333.5 559,-333.5"/>
<text text-anchor="start" x="564" y="-342.3" font-family="Arial" font-size="14.00">kind, name, tag</text>
<polygon fill="none" stroke="black" points="559,-308.5 559,-333.5 756,-333.5 756,-308.5 559,-308.5"/>
<text text-anchor="start" x="564" y="-317.3" font-family="Arial" font-size="14.00">storage_key, content_type</text>
<polygon fill="none" stroke="black" points="559,-283.5 559,-308.5 756,-308.5 756,-283.5 559,-283.5"/>
<text text-anchor="start" x="564" y="-292.3" font-family="Arial" font-size="14.00">size_bytes, sha256, created_at</text>
</g>
<!-- blob_uses -->
<g id="node15" class="node">
<title>blob_uses</title>
<polygon fill="white" stroke="transparent" points="212.5,-296.5 212.5,-442.5 349.5,-442.5 349.5,-296.5 212.5,-296.5"/>
<polygon fill="#ecfdf5" stroke="transparent" points="213,-417.5 213,-442.5 350,-442.5 350,-417.5 213,-417.5"/>
<polygon fill="none" stroke="black" points="213,-417.5 213,-442.5 350,-442.5 350,-417.5 213,-417.5"/>
<text text-anchor="start" x="248" y="-427.3" font-family="Arial" font-weight="bold" font-size="14.00">blob_uses</text>
<polygon fill="none" stroke="black" points="213,-392.5 213,-417.5 350,-417.5 350,-392.5 213,-392.5"/>
<text text-anchor="start" x="218" y="-402.3" font-family="Arial" font-weight="bold" font-size="14.00">PK</text>
<text text-anchor="start" x="237" y="-402.3" font-family="Arial" font-size="14.00"> id</text>
<polygon fill="none" stroke="black" points="213,-367.5 213,-392.5 350,-392.5 350,-367.5 213,-367.5"/>
<text text-anchor="start" x="218" y="-377.3" font-family="Arial" font-weight="bold" font-size="14.00">FK</text>
<text text-anchor="start" x="237" y="-377.3" font-family="Arial" font-size="14.00"> blob_id</text>
<polygon fill="none" stroke="black" points="213,-342.5 213,-367.5 350,-367.5 350,-342.5 213,-342.5"/>
<text text-anchor="start" x="218" y="-352.3" font-family="Arial" font-weight="bold" font-size="14.00">FK</text>
<text text-anchor="start" x="237" y="-352.3" font-family="Arial" font-size="14.00"> project_id</text>
<polygon fill="none" stroke="black" points="213,-317.5 213,-342.5 350,-342.5 350,-317.5 213,-317.5"/>
<text text-anchor="start" x="218" y="-326.3" font-family="Arial" font-size="14.00">created_at</text>
<polygon fill="none" stroke="black" points="213,-296.5 213,-317.5 350,-317.5 350,-296.5 213,-296.5"/>
<text text-anchor="start" x="218" y="-304.5" font-family="Arial" font-size="10.00" fill="#64748b">org KB doc used by a project</text>
</g>
<!-- blob_uses&#45;&gt;projectstate -->
<g id="edge15" class="edge">
<title>blob_uses:t&#45;&gt;projectstate:t</title>
<path fill="none" stroke="#64748b" stroke-dasharray="5,2" d="M351,-430.5C466.81,-430.5 456.95,-568.78 566.88,-575.26"/>
<polygon fill="#64748b" stroke="#64748b" points="566.92,-578.07 575,-575.5 567.08,-572.47 566.92,-578.07"/>
</g>
<!-- blob_uses&#45;&gt;blobs -->
<g id="edge14" class="edge">
<title>blob_uses:t&#45;&gt;blobs:t</title>
<path fill="none" stroke="#334155" d="M351,-430.5C440.3,-430.5 464.47,-422.04 549.82,-421.52"/>
<polygon fill="#334155" stroke="#334155" points="550.01,-424.32 558,-421.5 549.99,-418.72 550.01,-424.32"/>
</g>
</g>
</svg>
